<?xml version="1.0" encoding="UTF-8"?>
<svg xmlns="http://www.w3.org/2000/svg" viewBox="0 0 749.32 754.39">
  <defs>
    <style>
      .cls-1 {
        fill: #9d9d9d;
      }

      .cls-2 {
        fill: #e9e9e9;
      }

      .cls-3 {
        fill: #849a31;
      }

      .cls-4 {
        fill: #262626;
      }

      .cls-5 {
        fill: #54372f;
        opacity: .62;
      }

      .cls-6 {
        fill: #f4f4f4;
      }

      .cls-7, .cls-8 {
        fill: #fff;
      }

      .cls-9 {
        fill: #727272;
      }

      .cls-10 {
        fill: #575757;
      }

      .cls-11 {
        fill: #4c4c4c;
      }

      .cls-12 {
        fill: #fafafa;
      }

      .cls-13 {
        fill: #aeaeae;
      }

      .cls-14 {
        fill: #363636;
      }

      .cls-15 {
        fill: #989898;
      }

      .cls-16 {
        fill: #5c5c5c;
      }

      .cls-17 {
        fill: #777;
      }

      .cls-18 {
        fill: #819332;
      }

      .cls-19 {
        isolation: isolate;
      }

      .cls-20 {
        fill: #8e1919;
        opacity: .81;
      }

      .cls-21 {
        fill: #c9c9c9;
      }

      .cls-8 {
        opacity: .11;
      }

      .cls-22 {
        fill: #8d8d8d;
      }

      .cls-23 {
        fill: #69493e;
      }

      .cls-24 {
        fill: #dedede;
      }

      .cls-25 {
        mix-blend-mode: multiply;
        opacity: .15;
      }

      .cls-26 {
        fill: #c3c3c3;
      }

      .cls-27 {
        fill: #313131;
      }

      .cls-28 {
        fill: #1b1b1b;
      }

      .cls-29 {
        fill: #929292;
      }

      .cls-30 {
        fill: #101010;
      }

      .cls-31 {
        fill: #626262;
      }

      .cls-32 {
        fill: #7a0f23;
        opacity: .63;
      }

      .cls-33 {
        fill: #d4d4d4;
      }

      .cls-34 {
        fill: #828282;
      }

      .cls-35 {
        fill: #b8b8b8;
      }

      .cls-36 {
        fill: #7d7d7d;
      }

      .cls-37 {
        fill: #414141;
      }

      .cls-38 {
        fill: #2b2b2b;
      }

      .cls-39 {
        fill: #676767;
      }

      .cls-40 {
        fill: #e4e4e4;
      }

      .cls-41 {
        fill: #a3a3a3;
      }

      .cls-42 {
        fill: #212121;
      }

      .cls-43 {
        fill: #bebebe;
      }

      .cls-44 {
        fill: #a01c1c;
      }

      .cls-45 {
        fill: #050505;
      }

      .cls-46 {
        fill: #161616;
      }

      .cls-47 {
        fill: #474747;
      }

      .cls-48 {
        fill: #515151;
      }

      .cls-49 {
        fill: #0b0b0b;
      }

      .cls-50 {
        fill: #b3b3b3;
      }

      .cls-51 {
        fill: #efefef;
      }

      .cls-52 {
        fill: #a8a8a8;
      }

      .cls-53 {
        fill: #cecece;
      }

      .cls-54 {
        fill: #d9d9d9;
      }

      .cls-55 {
        fill: #6d6d6d;
      }

      .cls-56 {
        fill: #3c3c3c;
      }

      .cls-57 {
        fill: #888;
      }
    </style>
  </defs>
  <g class="cls-19">
    <g id="_Слой_2" data-name="Слой 2">
      <g id="Shadow">
        <g class="cls-25">
          <path class="cls-7" d="m729.81,57.04c-17-5.79-34.67-6.98-51.76-8.13-8.76-.59-17.04-1.14-25.21-2.28-14.56-2.02-28.63-5.87-43.53-9.95-9.03-2.47-18.37-5.03-27.81-7.13-35.64-7.95-74.81-5.95-110.29,5.61-33.53,10.93-61.06,29.38-80.48,53.79,2.95-10.95,5.95-22.02,8.95-32.94,1.98-7.2,4.7-17.07,1.74-27.31-2.03-7.02-7.1-13.28-13.56-16.74-5.71-3.06-12.07-3.74-17.93-1.91-15.35,4.81-17.97,22.11-18.83,27.8-.73,4.84-2.86,15-5.33,26.77-6.38,30.46-15.55,74.21-18.1,106.01-9.76-2.63-19.4-6.01-29.43-9.52-24.59-8.62-50.02-17.53-79.19-15.36-59.28,4.39-115.62,30.72-154.58,72.23C10.44,275.55-9.31,360.97,14.17,435.56c13.56,43.09,39.46,80,64.51,115.68l87.83,125.15c11.7,16.66,24.95,35.55,43.1,49.52,30.36,23.36,67.55,28.48,94.29,28.48.88,0,1.74,0,2.6-.02,23.29-.29,46.18-4.75,68.32-9.06l1.38-.27c18.1-3.52,31.53-2.22,50.11-.41,3.02.29,6.15.6,9.43.89,26.51,2.39,53.87-5.25,75.06-20.98,24.45-18.14,35.98-42.47,47.13-66,2.99-6.31,6.08-12.84,9.37-19.11,4.22-8.04,8.43-16.34,12.5-24.36,14.55-28.66,29.6-58.29,48.37-83.41,30.61-40.97,50.02-83.86,57.69-127.49,5.48-31.14,4.82-63.7-1.89-94.17-7.1-32.2-20.4-61.11-39.56-85.91-8.62-11.16-18.5-21.41-29.5-30.61,10.12-9.32,19.6-19.75,30-31.84,18.88-21.95,41.77-42.07,63.9-61.53,8.36-7.35,17-14.94,25.3-22.53l15.21-13.9-19.51-6.65Z"/>
          <path class="cls-12" d="m729.75,56.89c-17-5.79-34.67-6.98-51.76-8.13-8.76-.59-17.04-1.14-25.21-2.28-14.56-2.02-28.63-5.87-43.53-9.95-9.03-2.47-18.37-5.03-27.81-7.13-35.64-7.95-74.81-5.95-110.29,5.61-33.53,10.93-61.06,29.38-80.48,53.79,2.95-10.95,5.95-22.02,8.95-32.94,1.98-7.2,4.7-17.07,1.74-27.31-2.03-7.02-7.1-13.28-13.56-16.74-5.71-3.06-12.07-3.74-17.93-1.91-15.35,4.81-17.97,22.11-18.83,27.8-.73,4.84-2.86,15-5.33,26.77-6.38,30.46-15.55,74.21-18.1,106.01-9.76-2.63-19.4-6.01-29.43-9.52-24.59-8.62-50.02-17.53-79.19-15.36-59.28,4.39-115.62,30.72-154.58,72.23C10.37,275.41-9.37,360.82,14.1,435.42c13.56,43.09,39.46,80,64.51,115.68l87.83,125.15c11.7,16.66,24.95,35.55,43.1,49.51,30.36,23.36,67.55,28.48,94.29,28.48.88,0,1.74,0,2.6-.02,23.29-.29,46.18-4.75,68.32-9.06l1.38-.27c18.1-3.52,31.53-2.22,50.11-.41,3.02.29,6.15.6,9.43.89,26.51,2.39,53.87-5.25,75.06-20.98,24.45-18.14,35.98-42.47,47.13-66,2.99-6.31,6.08-12.84,9.37-19.11,4.22-8.04,8.43-16.34,12.5-24.36,14.55-28.66,29.6-58.29,48.37-83.41,30.61-40.97,50.02-83.86,57.69-127.49,5.48-31.14,4.82-63.7-1.89-94.17-7.1-32.2-20.4-61.11-39.56-85.91-8.62-11.16-18.5-21.41-29.5-30.61,10.12-9.32,19.6-19.75,30-31.84,18.88-21.95,41.77-42.07,63.9-61.53,8.36-7.35,17-14.94,25.3-22.53l15.21-13.9-19.51-6.65Z"/>
          <path class="cls-6" d="m729.68,56.75c-17-5.79-34.67-6.98-51.76-8.13-8.76-.59-17.04-1.14-25.21-2.28-14.56-2.02-28.63-5.87-43.53-9.95-9.03-2.47-18.37-5.03-27.81-7.13-35.64-7.95-74.81-5.95-110.29,5.61-33.53,10.93-61.06,29.38-80.48,53.79,2.95-10.95,5.95-22.02,8.95-32.94,1.98-7.2,4.7-17.07,1.74-27.31-2.03-7.02-7.1-13.28-13.56-16.74-5.71-3.06-12.07-3.74-17.93-1.91-15.35,4.81-17.97,22.11-18.83,27.8-.73,4.84-2.86,15-5.33,26.77-6.38,30.46-15.55,74.21-18.1,106.01-9.76-2.63-19.4-6.01-29.43-9.52-24.59-8.62-50.02-17.53-79.19-15.36-59.28,4.39-115.62,30.72-154.58,72.23C10.31,275.27-9.44,360.68,14.03,435.28c13.56,43.09,39.46,80,64.51,115.68l87.83,125.15c11.7,16.66,24.95,35.55,43.1,49.51,30.36,23.36,67.55,28.48,94.29,28.48.88,0,1.74,0,2.6-.02,23.29-.29,46.18-4.75,68.32-9.06l1.38-.27c18.1-3.52,31.53-2.22,50.11-.41,3.02.29,6.15.6,9.43.89,26.51,2.39,53.87-5.25,75.06-20.98,24.45-18.14,35.98-42.47,47.13-66,2.99-6.31,6.08-12.84,9.37-19.11,4.22-8.04,8.43-16.34,12.5-24.36,14.55-28.66,29.6-58.29,48.37-83.41,30.61-40.97,50.02-83.86,57.69-127.49,5.48-31.14,4.82-63.7-1.89-94.17-7.1-32.2-20.4-61.11-39.56-85.91-8.62-11.16-18.5-21.41-29.5-30.61,10.12-9.32,19.6-19.75,30-31.84,18.88-21.95,41.77-42.07,63.9-61.53,8.36-7.35,17-14.94,25.3-22.53l15.21-13.9-19.51-6.65Z"/>
          <path class="cls-51" d="m729.61,56.61c-17-5.79-34.67-6.98-51.76-8.13-8.76-.59-17.04-1.14-25.21-2.28-14.56-2.02-28.63-5.87-43.53-9.95-9.03-2.47-18.37-5.03-27.81-7.13-35.64-7.95-74.81-5.95-110.29,5.61-33.53,10.93-61.06,29.38-80.48,53.79,2.95-10.95,5.95-22.02,8.95-32.94,1.98-7.2,4.7-17.07,1.74-27.31-2.03-7.02-7.1-13.28-13.56-16.74-5.71-3.06-12.07-3.74-17.93-1.91-15.35,4.81-17.97,22.11-18.83,27.8-.73,4.84-2.86,15-5.33,26.77-6.38,30.46-15.55,74.21-18.1,106.01-9.76-2.63-19.4-6.01-29.43-9.52-24.59-8.62-50.02-17.53-79.19-15.36-59.28,4.39-115.62,30.72-154.58,72.24C10.24,275.12-9.51,360.54,13.97,435.13c13.56,43.09,39.46,80,64.51,115.68l87.83,125.15c11.7,16.66,24.95,35.55,43.1,49.51,30.36,23.36,67.55,28.48,94.29,28.48.88,0,1.74,0,2.6-.02,23.29-.29,46.18-4.75,68.32-9.06l1.38-.27c18.1-3.52,31.53-2.22,50.11-.41,3.02.29,6.15.6,9.43.89,26.51,2.39,53.87-5.25,75.06-20.98,24.45-18.14,35.98-42.47,47.13-66,2.99-6.31,6.08-12.84,9.37-19.11,4.22-8.04,8.43-16.34,12.5-24.36,14.55-28.66,29.6-58.29,48.37-83.41,30.61-40.97,50.02-83.86,57.69-127.49,5.48-31.14,4.82-63.7-1.89-94.17-7.1-32.2-20.4-61.11-39.56-85.91-8.62-11.16-18.5-21.41-29.5-30.61,10.12-9.32,19.6-19.75,30-31.84,18.88-21.95,41.77-42.07,63.9-61.53,8.36-7.35,17-14.94,25.3-22.53l15.21-13.9-19.51-6.65Z"/>
          <path class="cls-2" d="m729.54,56.46c-17-5.79-34.67-6.98-51.76-8.13-8.76-.59-17.04-1.14-25.21-2.28-14.56-2.02-28.63-5.87-43.53-9.95-9.03-2.47-18.37-5.03-27.81-7.13-35.64-7.95-74.81-5.95-110.29,5.61-33.53,10.93-61.06,29.38-80.48,53.79,2.95-10.95,5.95-22.02,8.95-32.94,1.98-7.2,4.7-17.07,1.74-27.31-2.03-7.02-7.1-13.28-13.56-16.74-5.71-3.06-12.07-3.74-17.93-1.91-15.35,4.81-17.97,22.11-18.83,27.8-.73,4.84-2.86,15-5.33,26.77-6.38,30.46-15.55,74.21-18.1,106.01-9.76-2.63-19.4-6.01-29.43-9.52-24.59-8.62-50.02-17.53-79.19-15.36-59.28,4.39-115.62,30.72-154.58,72.24C10.17,274.98-9.58,360.39,13.9,434.99c13.56,43.09,39.46,80,64.51,115.68l87.83,125.15c11.7,16.66,24.95,35.55,43.1,49.52,30.36,23.36,67.55,28.48,94.29,28.48.88,0,1.74,0,2.6-.02,23.29-.29,46.18-4.75,68.32-9.06l1.38-.27c18.1-3.52,31.53-2.22,50.11-.41,3.02.29,6.15.6,9.43.89,26.51,2.39,53.87-5.25,75.06-20.98,24.45-18.14,35.98-42.47,47.13-66,2.99-6.31,6.08-12.84,9.37-19.11,4.22-8.04,8.43-16.34,12.5-24.36,14.55-28.66,29.6-58.29,48.37-83.41,30.61-40.97,50.02-83.86,57.69-127.49,5.48-31.14,4.82-63.7-1.89-94.17-7.1-32.2-20.4-61.11-39.56-85.91-8.62-11.16-18.5-21.41-29.5-30.61,10.12-9.32,19.6-19.75,30-31.84,18.88-21.95,41.77-42.07,63.9-61.53,8.36-7.35,17-14.94,25.3-22.53l15.21-13.9-19.51-6.65Z"/>
          <path class="cls-40" d="m729.48,56.32c-17-5.79-34.67-6.98-51.76-8.13-8.76-.59-17.04-1.14-25.21-2.28-14.56-2.02-28.63-5.87-43.53-9.95-9.03-2.47-18.37-5.03-27.81-7.13-35.64-7.95-74.81-5.95-110.29,5.61-33.53,10.93-61.06,29.38-80.48,53.79,2.95-10.95,5.95-22.02,8.95-32.94,1.98-7.2,4.7-17.07,1.74-27.31-2.03-7.02-7.1-13.28-13.56-16.74-5.71-3.06-12.07-3.74-17.93-1.91-15.35,4.81-17.97,22.11-18.83,27.8-.73,4.84-2.86,15-5.33,26.77-6.38,30.46-15.55,74.21-18.1,106.01-9.76-2.63-19.4-6.01-29.43-9.52-24.59-8.62-50.02-17.53-79.19-15.36-59.28,4.39-115.62,30.72-154.58,72.23C10.1,274.84-9.64,360.25,13.83,434.85c13.56,43.09,39.46,80,64.51,115.68l87.83,125.15c11.7,16.66,24.95,35.55,43.1,49.52,30.36,23.36,67.55,28.48,94.29,28.48.88,0,1.74,0,2.6-.02,23.29-.29,46.18-4.75,68.32-9.06l1.38-.27c18.1-3.52,31.53-2.22,50.11-.41,3.02.29,6.15.6,9.43.89,26.51,2.39,53.87-5.25,75.06-20.98,24.45-18.14,35.98-42.47,47.13-66,2.99-6.31,6.08-12.84,9.37-19.11,4.22-8.04,8.43-16.34,12.5-24.36,14.55-28.66,29.6-58.29,48.37-83.41,30.61-40.97,50.02-83.86,57.69-127.49,5.48-31.14,4.82-63.7-1.89-94.17-7.1-32.2-20.4-61.11-39.56-85.91-8.62-11.16-18.5-21.41-29.5-30.61,10.12-9.32,19.6-19.75,30-31.84,18.88-21.95,41.77-42.07,63.9-61.53,8.36-7.35,17-14.94,25.3-22.53l15.21-13.9-19.51-6.65Z"/>
          <path class="cls-24" d="m729.41,56.18c-17-5.79-34.67-6.98-51.76-8.13-8.76-.59-17.04-1.14-25.21-2.28-14.56-2.02-28.63-5.87-43.53-9.95-9.03-2.47-18.37-5.03-27.81-7.13-35.64-7.95-74.81-5.95-110.29,5.61-33.53,10.93-61.06,29.38-80.48,53.79,2.95-10.95,5.95-22.02,8.95-32.94,1.98-7.2,4.7-17.07,1.74-27.31-2.03-7.02-7.1-13.28-13.56-16.74-5.71-3.06-12.07-3.74-17.93-1.91-15.35,4.81-17.97,22.11-18.83,27.8-.73,4.84-2.86,15-5.33,26.77-6.38,30.46-15.55,74.21-18.1,106.01-9.76-2.63-19.4-6.01-29.43-9.52-24.59-8.62-50.02-17.53-79.19-15.36-59.28,4.39-115.62,30.72-154.58,72.23C10.04,274.69-9.71,360.11,13.76,434.7c13.56,43.09,39.46,80,64.51,115.68l87.83,125.15c11.7,16.66,24.95,35.55,43.1,49.51,30.36,23.36,67.55,28.48,94.29,28.48.88,0,1.74,0,2.6-.02,23.29-.29,46.18-4.75,68.32-9.06l1.38-.27c18.1-3.52,31.53-2.22,50.11-.41,3.02.29,6.15.6,9.43.89,26.51,2.39,53.87-5.25,75.06-20.98,24.45-18.14,35.98-42.47,47.13-66,2.99-6.31,6.08-12.84,9.37-19.11,4.22-8.04,8.43-16.34,12.5-24.36,14.55-28.66,29.6-58.29,48.37-83.41,30.61-40.97,50.02-83.86,57.69-127.49,5.48-31.14,4.82-63.7-1.89-94.17-7.1-32.2-20.4-61.11-39.56-85.91-8.62-11.16-18.5-21.41-29.5-30.61,10.12-9.32,19.6-19.75,30-31.84,18.88-21.95,41.77-42.07,63.9-61.53,8.36-7.35,17-14.94,25.3-22.53l15.21-13.9-19.51-6.65Z"/>
          <path class="cls-54" d="m729.34,56.03c-17-5.79-34.67-6.98-51.76-8.13-8.76-.59-17.04-1.14-25.21-2.28-14.56-2.02-28.63-5.87-43.53-9.95-9.03-2.47-18.37-5.03-27.81-7.13-35.64-7.95-74.81-5.95-110.29,5.61-33.53,10.93-61.06,29.38-80.48,53.79,2.95-10.95,5.95-22.02,8.95-32.94,1.98-7.2,4.7-17.07,1.74-27.31-2.03-7.02-7.1-13.28-13.56-16.74-5.71-3.06-12.07-3.74-17.93-1.91-15.35,4.81-17.97,22.11-18.83,27.8-.73,4.84-2.86,15-5.33,26.77-6.38,30.46-15.55,74.21-18.1,106.01-9.76-2.63-19.4-6.01-29.43-9.52-24.59-8.62-50.02-17.53-79.19-15.36-59.28,4.39-115.62,30.72-154.58,72.23C9.97,274.55-9.78,359.96,13.7,434.56c13.56,43.09,39.46,80,64.51,115.68l87.83,125.15c11.7,16.66,24.95,35.55,43.1,49.51,30.36,23.36,67.55,28.48,94.29,28.48.88,0,1.74,0,2.6-.02,23.29-.29,46.18-4.75,68.32-9.06l1.38-.27c18.1-3.52,31.53-2.22,50.11-.41,3.02.29,6.15.6,9.43.89,26.51,2.39,53.87-5.25,75.06-20.98,24.45-18.14,35.98-42.47,47.13-66,2.99-6.31,6.08-12.84,9.37-19.11,4.22-8.04,8.43-16.34,12.5-24.36,14.55-28.66,29.6-58.29,48.37-83.41,30.61-40.97,50.02-83.86,57.69-127.49,5.48-31.14,4.82-63.7-1.89-94.17-7.1-32.2-20.4-61.11-39.56-85.91-8.62-11.16-18.5-21.41-29.5-30.61,10.12-9.32,19.6-19.75,30-31.84,18.88-21.95,41.77-42.07,63.9-61.53,8.36-7.35,17-14.94,25.3-22.53l15.21-13.9-19.51-6.65Z"/>
          <path class="cls-33" d="m729.27,55.89c-17-5.79-34.67-6.98-51.76-8.13-8.76-.59-17.04-1.14-25.21-2.28-14.56-2.02-28.63-5.87-43.53-9.95-9.03-2.47-18.37-5.03-27.81-7.13-35.64-7.95-74.81-5.95-110.29,5.61-33.53,10.93-61.06,29.38-80.48,53.79,2.95-10.95,5.95-22.02,8.95-32.94,1.98-7.2,4.7-17.07,1.74-27.31-2.03-7.02-7.1-13.28-13.56-16.74-5.71-3.06-12.07-3.74-17.93-1.91-15.35,4.81-17.97,22.11-18.83,27.8-.73,4.84-2.86,15-5.33,26.77-6.38,30.46-15.55,74.21-18.1,106.01-9.76-2.63-19.4-6.01-29.43-9.52-24.59-8.62-50.02-17.53-79.19-15.36-59.28,4.39-115.62,30.72-154.58,72.23C9.9,274.41-9.85,359.82,13.63,434.42c13.56,43.09,39.46,80,64.51,115.68l87.83,125.15c11.7,16.66,24.95,35.55,43.1,49.52,30.36,23.36,67.55,28.48,94.29,28.48.88,0,1.74,0,2.6-.02,23.29-.29,46.18-4.75,68.32-9.06l1.38-.27c18.1-3.52,31.53-2.22,50.11-.41,3.02.29,6.15.6,9.43.89,26.51,2.39,53.87-5.25,75.06-20.98,24.45-18.14,35.98-42.47,47.13-66,2.99-6.31,6.08-12.84,9.37-19.11,4.22-8.04,8.43-16.34,12.5-24.36,14.55-28.66,29.6-58.29,48.37-83.41,30.61-40.97,50.02-83.86,57.69-127.49,5.48-31.14,4.82-63.7-1.89-94.17-7.1-32.2-20.4-61.11-39.56-85.91-8.62-11.16-18.5-21.41-29.5-30.61,10.12-9.32,19.6-19.75,30-31.84,18.88-21.95,41.77-42.07,63.9-61.53,8.36-7.35,17-14.94,25.3-22.53l15.21-13.9-19.51-6.65Z"/>
          <path class="cls-53" d="m729.21,55.75c-17-5.79-34.67-6.98-51.76-8.13-8.76-.59-17.04-1.14-25.21-2.28-14.56-2.02-28.63-5.87-43.53-9.95-9.03-2.47-18.37-5.03-27.81-7.13-35.64-7.95-74.81-5.95-110.29,5.61-33.53,10.93-61.06,29.38-80.48,53.79,2.95-10.95,5.95-22.02,8.95-32.94,1.98-7.2,4.7-17.07,1.74-27.31-2.03-7.02-7.1-13.28-13.56-16.74-5.71-3.06-12.07-3.74-17.93-1.91-15.35,4.81-17.97,22.11-18.83,27.8-.73,4.84-2.86,15-5.33,26.77-6.38,30.46-15.55,74.21-18.1,106.01-9.76-2.63-19.4-6.01-29.43-9.52-24.59-8.62-50.02-17.53-79.19-15.36-59.28,4.39-115.62,30.72-154.58,72.23C9.84,274.26-9.91,359.68,13.56,434.27c13.56,43.09,39.46,80,64.51,115.68l87.83,125.15c11.7,16.66,24.95,35.55,43.1,49.52,30.36,23.36,67.55,28.48,94.29,28.48.88,0,1.74,0,2.6-.02,23.29-.29,46.18-4.75,68.32-9.06l1.38-.27c18.1-3.52,31.53-2.22,50.11-.41,3.02.29,6.15.6,9.43.89,26.51,2.39,53.87-5.25,75.06-20.98,24.45-18.14,35.98-42.47,47.13-66,2.99-6.31,6.08-12.84,9.37-19.11,4.22-8.04,8.43-16.34,12.5-24.36,14.55-28.66,29.6-58.29,48.37-83.41,30.61-40.97,50.02-83.86,57.69-127.49,5.48-31.14,4.82-63.7-1.89-94.17-7.1-32.2-20.4-61.11-39.56-85.91-8.62-11.16-18.5-21.41-29.5-30.61,10.12-9.32,19.6-19.75,30-31.84,18.88-21.95,41.77-42.07,63.9-61.53,8.36-7.35,17-14.94,25.3-22.53l15.21-13.9-19.51-6.65Z"/>
          <path class="cls-21" d="m729.14,55.6c-17-5.79-34.67-6.98-51.76-8.13-8.76-.59-17.04-1.14-25.21-2.28-14.56-2.02-28.63-5.87-43.53-9.95-9.03-2.47-18.37-5.03-27.81-7.13-35.64-7.95-74.81-5.95-110.29,5.61-33.53,10.93-61.06,29.38-80.48,53.79,2.95-10.95,5.95-22.02,8.95-32.94,1.98-7.2,4.7-17.07,1.73-27.31-2.03-7.02-7.1-13.28-13.56-16.74-5.71-3.06-12.07-3.74-17.93-1.91-15.35,4.81-17.97,22.11-18.83,27.8-.73,4.84-2.86,15-5.33,26.77-6.38,30.46-15.55,74.21-18.1,106.01-9.76-2.63-19.4-6.01-29.43-9.52-24.59-8.62-50.02-17.53-79.19-15.36-59.28,4.39-115.62,30.72-154.58,72.23C9.77,274.12-9.98,359.53,13.49,434.13c13.56,43.09,39.46,80,64.51,115.68l87.83,125.15c11.7,16.66,24.95,35.55,43.1,49.51,30.36,23.36,67.55,28.48,94.29,28.48.88,0,1.74,0,2.6-.02,23.29-.29,46.18-4.75,68.32-9.06l1.38-.27c18.1-3.52,31.53-2.22,50.11-.41,3.02.29,6.15.6,9.43.89,26.51,2.39,53.87-5.25,75.06-20.98,24.45-18.14,35.98-42.47,47.13-66,2.99-6.31,6.08-12.84,9.37-19.11,4.22-8.04,8.43-16.34,12.5-24.36,14.55-28.66,29.6-58.29,48.37-83.41,30.61-40.97,50.02-83.86,57.69-127.49,5.48-31.14,4.82-63.7-1.89-94.17-7.1-32.2-20.4-61.11-39.56-85.91-8.62-11.16-18.5-21.41-29.5-30.61,10.12-9.32,19.6-19.75,30-31.84,18.88-21.95,41.77-42.07,63.9-61.53,8.36-7.35,17-14.94,25.3-22.53l15.21-13.9-19.51-6.65Z"/>
          <path class="cls-26" d="m729.07,55.46c-17-5.79-34.67-6.98-51.76-8.13-8.76-.59-17.04-1.14-25.21-2.28-14.56-2.02-28.63-5.87-43.53-9.95-9.03-2.47-18.37-5.03-27.81-7.13-35.64-7.95-74.81-5.95-110.29,5.61-33.53,10.93-61.06,29.38-80.48,53.79,2.95-10.95,5.95-22.02,8.95-32.94,1.98-7.2,4.7-17.07,1.74-27.31-2.03-7.02-7.1-13.28-13.56-16.74-5.71-3.06-12.07-3.74-17.93-1.91-15.35,4.81-17.97,22.11-18.83,27.8-.73,4.84-2.86,15-5.33,26.77-6.38,30.46-15.55,74.21-18.1,106.01-9.76-2.63-19.4-6.01-29.43-9.52-24.59-8.62-50.02-17.53-79.19-15.36-59.28,4.39-115.62,30.72-154.58,72.23C9.7,273.98-10.05,359.39,13.43,433.99c13.56,43.09,39.46,80,64.51,115.68l87.83,125.15c11.7,16.66,24.95,35.55,43.1,49.51,30.36,23.36,67.55,28.48,94.29,28.48.88,0,1.74,0,2.6-.02,23.29-.29,46.18-4.75,68.32-9.06l1.38-.27c18.1-3.52,31.53-2.22,50.11-.41,3.02.29,6.15.6,9.43.89,26.51,2.39,53.87-5.25,75.06-20.98,24.45-18.14,35.98-42.47,47.13-66,2.99-6.31,6.08-12.84,9.37-19.11,4.22-8.04,8.43-16.34,12.5-24.36,14.55-28.66,29.6-58.29,48.37-83.41,30.61-40.97,50.02-83.86,57.69-127.49,5.48-31.14,4.82-63.7-1.89-94.17-7.1-32.2-20.4-61.11-39.56-85.91-8.62-11.16-18.5-21.41-29.5-30.61,10.12-9.32,19.6-19.75,30-31.84,18.88-21.95,41.77-42.07,63.9-61.53,8.36-7.35,17-14.94,25.3-22.53l15.21-13.9-19.51-6.65Z"/>
          <path class="cls-43" d="m729.01,55.32c-17-5.79-34.67-6.98-51.76-8.13-8.76-.59-17.04-1.14-25.21-2.28-14.56-2.02-28.63-5.87-43.53-9.95-9.03-2.47-18.37-5.03-27.81-7.13-35.64-7.95-74.81-5.95-110.29,5.61-33.53,10.93-61.06,29.38-80.48,53.79,2.95-10.96,5.95-22.02,8.95-32.94,1.98-7.2,4.7-17.07,1.74-27.31-2.03-7.02-7.1-13.28-13.56-16.74-5.71-3.06-12.07-3.74-17.93-1.91-15.35,4.81-17.97,22.11-18.83,27.8-.73,4.84-2.86,15-5.33,26.77-6.38,30.46-15.55,74.21-18.1,106.01-9.76-2.63-19.4-6.01-29.43-9.52-24.59-8.62-50.02-17.53-79.19-15.36-59.28,4.39-115.62,30.72-154.58,72.24C9.63,273.83-10.12,359.25,13.36,433.84c13.56,43.09,39.46,80,64.51,115.68l87.83,125.15c11.7,16.66,24.95,35.55,43.1,49.51,30.36,23.36,67.55,28.48,94.29,28.48.88,0,1.74,0,2.6-.02,23.29-.29,46.18-4.75,68.32-9.06l1.38-.27c18.1-3.52,31.53-2.22,50.11-.41,3.02.29,6.15.6,9.43.89,26.51,2.39,53.87-5.25,75.06-20.98,24.45-18.14,35.98-42.47,47.13-66,2.99-6.31,6.08-12.84,9.37-19.11,4.22-8.04,8.43-16.34,12.5-24.36,14.55-28.66,29.6-58.29,48.37-83.41,30.61-40.97,50.02-83.86,57.69-127.49,5.48-31.14,4.82-63.7-1.89-94.17-7.1-32.2-20.4-61.11-39.56-85.91-8.62-11.16-18.5-21.41-29.5-30.61,10.12-9.32,19.6-19.75,30-31.84,18.88-21.95,41.77-42.07,63.9-61.53,8.36-7.35,17-14.94,25.3-22.53l15.21-13.9-19.51-6.65Z"/>
          <path class="cls-35" d="m728.94,55.17c-17-5.79-34.67-6.98-51.76-8.13-8.76-.59-17.04-1.14-25.21-2.28-14.56-2.02-28.63-5.87-43.53-9.95-9.03-2.47-18.37-5.03-27.81-7.13-35.64-7.95-74.81-5.95-110.29,5.61-33.53,10.93-61.06,29.38-80.48,53.79,2.95-10.95,5.95-22.02,8.95-32.94,1.98-7.2,4.7-17.07,1.74-27.31-2.03-7.02-7.1-13.28-13.56-16.74-5.71-3.06-12.07-3.74-17.93-1.91-15.35,4.81-17.97,22.11-18.83,27.8-.73,4.84-2.86,15-5.33,26.77-6.38,30.46-15.55,74.21-18.1,106.01-9.76-2.63-19.4-6.01-29.43-9.52-24.59-8.62-50.02-17.53-79.19-15.36-59.28,4.39-115.62,30.72-154.58,72.24C9.57,273.69-10.18,359.1,13.29,433.7c13.56,43.09,39.46,80,64.51,115.68l87.83,125.15c11.7,16.66,24.95,35.55,43.1,49.52,30.36,23.36,67.55,28.48,94.29,28.48.88,0,1.74,0,2.6-.02,23.29-.29,46.18-4.75,68.32-9.06l1.38-.27c18.1-3.52,31.53-2.22,50.11-.41,3.02.29,6.15.6,9.43.89,26.51,2.39,53.87-5.25,75.06-20.98,24.45-18.14,35.98-42.47,47.13-66,2.99-6.31,6.08-12.84,9.37-19.11,4.22-8.04,8.43-16.34,12.5-24.36,14.55-28.66,29.6-58.29,48.37-83.41,30.61-40.97,50.02-83.86,57.69-127.49,5.48-31.14,4.82-63.7-1.89-94.17-7.1-32.2-20.4-61.11-39.56-85.91-8.62-11.16-18.5-21.41-29.5-30.61,10.12-9.32,19.6-19.75,30-31.84,18.88-21.95,41.77-42.07,63.9-61.53,8.36-7.35,17-14.94,25.3-22.53l15.21-13.9-19.51-6.65Z"/>
          <path class="cls-50" d="m728.87,55.03c-17-5.79-34.67-6.98-51.76-8.13-8.76-.59-17.04-1.14-25.21-2.28-14.56-2.02-28.63-5.87-43.53-9.95-9.03-2.47-18.37-5.03-27.81-7.13-35.64-7.95-74.81-5.95-110.29,5.61-33.53,10.93-61.06,29.38-80.48,53.79,2.95-10.95,5.95-22.02,8.95-32.94,1.98-7.2,4.7-17.07,1.73-27.31-2.03-7.02-7.1-13.28-13.56-16.74-5.71-3.06-12.07-3.74-17.93-1.91-15.35,4.81-17.97,22.11-18.83,27.8-.73,4.84-2.86,15-5.33,26.77-6.38,30.46-15.55,74.21-18.1,106.01-9.76-2.63-19.4-6.01-29.43-9.52-24.59-8.62-50.02-17.53-79.19-15.36-59.28,4.39-115.62,30.72-154.58,72.23C9.5,273.55-10.25,358.96,13.22,433.56c13.56,43.09,39.46,80,64.51,115.68l87.83,125.15c11.7,16.66,24.95,35.55,43.1,49.52,30.36,23.36,67.55,28.48,94.29,28.48.88,0,1.74,0,2.6-.02,23.29-.29,46.18-4.75,68.32-9.06l1.38-.27c18.1-3.52,31.53-2.22,50.11-.41,3.02.29,6.15.6,9.43.89,26.51,2.39,53.87-5.25,75.06-20.98,24.45-18.14,35.98-42.47,47.13-66,2.99-6.31,6.08-12.84,9.37-19.11,4.22-8.04,8.43-16.34,12.5-24.36,14.55-28.66,29.6-58.29,48.37-83.41,30.61-40.97,50.02-83.86,57.69-127.49,5.48-31.14,4.82-63.7-1.89-94.17-7.1-32.2-20.4-61.11-39.56-85.91-8.62-11.16-18.5-21.41-29.5-30.61,10.12-9.32,19.6-19.75,30-31.84,18.88-21.95,41.77-42.07,63.9-61.53,8.36-7.35,17-14.94,25.3-22.53l15.21-13.9-19.51-6.65Z"/>
          <path class="cls-13" d="m728.8,54.89c-17-5.79-34.67-6.98-51.76-8.13-8.76-.59-17.04-1.14-25.21-2.28-14.56-2.02-28.63-5.87-43.53-9.95-9.03-2.47-18.37-5.03-27.81-7.13-35.64-7.95-74.81-5.95-110.29,5.61-33.53,10.93-61.06,29.38-80.48,53.79,2.95-10.95,5.95-22.02,8.95-32.94,1.98-7.2,4.7-17.07,1.73-27.31-2.03-7.02-7.1-13.28-13.56-16.74-5.71-3.06-12.07-3.74-17.93-1.91-15.35,4.81-17.97,22.11-18.83,27.8-.73,4.84-2.86,15-5.33,26.77-6.38,30.46-15.55,74.21-18.1,106.01-9.76-2.63-19.4-6.01-29.43-9.52-24.59-8.62-50.02-17.53-79.19-15.36-59.28,4.39-115.62,30.72-154.58,72.23C9.43,273.4-10.32,358.82,13.16,433.41c13.56,43.09,39.46,80,64.51,115.68l87.83,125.15c11.7,16.66,24.95,35.55,43.1,49.51,30.36,23.36,67.55,28.48,94.29,28.48.88,0,1.74,0,2.6-.02,23.29-.29,46.18-4.75,68.32-9.06l1.38-.27c18.1-3.52,31.53-2.22,50.11-.41,3.02.29,6.15.6,9.43.89,26.51,2.39,53.87-5.25,75.06-20.98,24.45-18.14,35.98-42.47,47.13-66,2.99-6.31,6.08-12.84,9.37-19.11,4.22-8.04,8.43-16.34,12.5-24.36,14.55-28.66,29.6-58.29,48.37-83.41,30.61-40.97,50.02-83.86,57.69-127.49,5.48-31.14,4.82-63.7-1.89-94.17-7.1-32.2-20.4-61.11-39.56-85.91-8.62-11.16-18.5-21.41-29.5-30.61,10.12-9.32,19.6-19.75,30-31.84,18.88-21.95,41.77-42.07,63.9-61.53,8.36-7.35,17-14.94,25.3-22.53l15.21-13.9-19.51-6.65Z"/>
          <path class="cls-52" d="m728.74,54.74c-17-5.79-34.67-6.98-51.76-8.13-8.76-.59-17.04-1.14-25.21-2.28-14.56-2.02-28.63-5.87-43.53-9.95-9.03-2.47-18.37-5.03-27.81-7.13-35.64-7.95-74.81-5.95-110.29,5.61-33.53,10.93-61.06,29.38-80.48,53.79,2.95-10.95,5.95-22.02,8.95-32.94,1.98-7.2,4.7-17.07,1.74-27.31-2.03-7.02-7.1-13.28-13.56-16.74-5.71-3.06-12.07-3.74-17.93-1.91-15.35,4.81-17.97,22.11-18.83,27.8-.73,4.84-2.86,15-5.33,26.77-6.38,30.46-15.55,74.21-18.1,106.01-9.76-2.63-19.4-6.01-29.43-9.52-24.59-8.62-50.02-17.53-79.19-15.36-59.28,4.39-115.62,30.72-154.58,72.23C9.36,273.26-10.39,358.67,13.09,433.27c13.56,43.09,39.46,80,64.51,115.68l87.83,125.15c11.7,16.66,24.95,35.55,43.1,49.51,30.36,23.36,67.55,28.48,94.29,28.48.88,0,1.74,0,2.6-.02,23.29-.29,46.18-4.75,68.32-9.06l1.38-.27c18.1-3.52,31.53-2.22,50.11-.41,3.02.29,6.15.6,9.43.89,26.51,2.39,53.87-5.25,75.06-20.98,24.45-18.14,35.98-42.47,47.13-66,2.99-6.31,6.08-12.84,9.37-19.11,4.22-8.04,8.43-16.34,12.5-24.36,14.55-28.66,29.6-58.29,48.37-83.41,30.61-40.97,50.02-83.86,57.69-127.49,5.48-31.14,4.82-63.7-1.89-94.17-7.1-32.2-20.4-61.11-39.56-85.91-8.62-11.16-18.5-21.41-29.5-30.61,10.12-9.32,19.6-19.75,30-31.84,18.88-21.95,41.77-42.07,63.9-61.53,8.36-7.35,17-14.94,25.3-22.53l15.21-13.9-19.51-6.65Z"/>
          <path class="cls-41" d="m728.67,54.6c-17-5.79-34.67-6.98-51.76-8.13-8.76-.59-17.04-1.14-25.21-2.28-14.56-2.02-28.63-5.87-43.53-9.95-9.03-2.47-18.37-5.03-27.81-7.13-35.64-7.95-74.81-5.95-110.29,5.61-33.53,10.93-61.06,29.38-80.48,53.79,2.95-10.95,5.95-22.02,8.95-32.94,1.98-7.2,4.7-17.07,1.74-27.31-2.03-7.02-7.1-13.28-13.56-16.74-5.71-3.06-12.07-3.74-17.93-1.91-15.35,4.81-17.97,22.11-18.83,27.8-.73,4.84-2.86,15-5.33,26.77-6.38,30.46-15.55,74.21-18.1,106.01-9.76-2.63-19.4-6.01-29.43-9.52-24.59-8.62-50.02-17.53-79.19-15.36-59.28,4.39-115.62,30.72-154.58,72.23C9.3,273.12-10.45,358.53,13.02,433.13c13.56,43.09,39.46,80,64.51,115.68l87.83,125.15c11.7,16.66,24.95,35.55,43.1,49.52,30.36,23.36,67.55,28.48,94.29,28.48.88,0,1.74,0,2.6-.02,23.29-.29,46.18-4.75,68.32-9.06l1.38-.27c18.1-3.52,31.53-2.22,50.11-.41,3.02.29,6.15.6,9.43.89,26.51,2.39,53.87-5.25,75.06-20.98,24.45-18.14,35.98-42.47,47.13-66,2.99-6.31,6.08-12.84,9.37-19.11,4.22-8.04,8.43-16.34,12.5-24.36,14.55-28.66,29.6-58.29,48.37-83.41,30.61-40.97,50.02-83.86,57.69-127.49,5.48-31.14,4.82-63.7-1.89-94.17-7.1-32.2-20.4-61.11-39.56-85.91-8.62-11.16-18.5-21.41-29.5-30.61,10.12-9.32,19.6-19.75,30-31.84,18.88-21.95,41.77-42.07,63.9-61.53,8.36-7.35,17-14.94,25.3-22.53l15.21-13.9-19.51-6.65Z"/>
          <path class="cls-1" d="m728.6,54.46c-17-5.79-34.67-6.98-51.76-8.13-8.76-.59-17.04-1.14-25.21-2.28-14.56-2.02-28.63-5.87-43.53-9.95-9.03-2.47-18.37-5.03-27.81-7.13-35.64-7.95-74.81-5.95-110.29,5.61-33.53,10.93-61.06,29.38-80.48,53.79,2.95-10.95,5.95-22.02,8.95-32.94,1.98-7.2,4.7-17.07,1.73-27.31-2.03-7.02-7.1-13.28-13.56-16.74-5.71-3.06-12.07-3.74-17.93-1.91-15.35,4.81-17.97,22.11-18.83,27.8-.73,4.84-2.86,15-5.33,26.77-6.38,30.46-15.55,74.21-18.1,106.01-9.76-2.63-19.4-6.01-29.43-9.52-24.59-8.62-50.02-17.53-79.19-15.36-59.28,4.39-115.62,30.72-154.58,72.23C9.23,272.97-10.52,358.39,12.95,432.98c13.56,43.09,39.46,80,64.51,115.68l87.83,125.15c11.7,16.66,24.95,35.55,43.1,49.52,30.36,23.36,67.55,28.48,94.29,28.48.88,0,1.74,0,2.6-.02,23.29-.29,46.18-4.75,68.32-9.06l1.38-.27c18.1-3.52,31.53-2.22,50.11-.41,3.02.29,6.15.6,9.43.89,26.51,2.39,53.87-5.25,75.06-20.98,24.45-18.14,35.98-42.47,47.13-66,2.99-6.31,6.08-12.84,9.37-19.11,4.22-8.04,8.43-16.34,12.5-24.36,14.55-28.66,29.6-58.29,48.37-83.41,30.61-40.97,50.02-83.86,57.69-127.49,5.48-31.14,4.82-63.7-1.89-94.17-7.1-32.2-20.4-61.11-39.56-85.91-8.62-11.16-18.5-21.41-29.5-30.61,10.12-9.32,19.6-19.75,30-31.84,18.88-21.95,41.77-42.07,63.9-61.53,8.36-7.35,17-14.94,25.3-22.53l15.21-13.9-19.51-6.65Z"/>
          <path class="cls-15" d="m728.53,54.31c-17-5.79-34.67-6.98-51.76-8.13-8.76-.59-17.04-1.14-25.21-2.28-14.56-2.02-28.63-5.87-43.53-9.95-9.03-2.47-18.37-5.03-27.81-7.13-35.64-7.95-74.81-5.95-110.29,5.61-33.53,10.93-61.06,29.38-80.48,53.79,2.95-10.95,5.95-22.02,8.95-32.94,1.98-7.2,4.7-17.07,1.73-27.31-2.03-7.02-7.1-13.28-13.56-16.74-5.71-3.06-12.07-3.74-17.93-1.91-15.35,4.81-17.97,22.11-18.83,27.8-.73,4.84-2.86,15-5.33,26.77-6.38,30.46-15.55,74.21-18.1,106.01-9.76-2.63-19.4-6.01-29.43-9.52-24.59-8.62-50.02-17.53-79.19-15.36-59.28,4.39-115.62,30.72-154.58,72.23C9.16,272.83-10.59,358.24,12.89,432.84c13.56,43.09,39.46,80,64.51,115.68l87.83,125.15c11.7,16.66,24.95,35.55,43.1,49.51,30.36,23.36,67.55,28.48,94.29,28.48.88,0,1.74,0,2.6-.02,23.29-.29,46.18-4.75,68.32-9.06l1.38-.27c18.1-3.52,31.53-2.22,50.11-.41,3.02.29,6.15.6,9.43.89,26.51,2.39,53.87-5.25,75.06-20.98,24.45-18.14,35.98-42.47,47.13-66,2.99-6.31,6.08-12.84,9.37-19.11,4.22-8.04,8.43-16.34,12.5-24.36,14.55-28.66,29.6-58.29,48.37-83.41,30.61-40.97,50.02-83.86,57.69-127.49,5.48-31.14,4.82-63.7-1.89-94.17-7.1-32.2-20.4-61.11-39.56-85.91-8.62-11.16-18.5-21.41-29.5-30.61,10.12-9.32,19.6-19.75,30-31.84,18.88-21.95,41.77-42.07,63.9-61.53,8.36-7.35,17-14.94,25.3-22.53l15.21-13.9-19.51-6.65Z"/>
          <path class="cls-29" d="m728.47,54.17c-17-5.79-34.67-6.98-51.76-8.13-8.76-.59-17.04-1.14-25.21-2.28-14.56-2.02-28.63-5.87-43.53-9.95-9.03-2.47-18.37-5.03-27.81-7.13-35.64-7.95-74.81-5.95-110.29,5.61-33.53,10.93-61.06,29.38-80.48,53.79,2.95-10.95,5.95-22.02,8.95-32.94,1.98-7.2,4.7-17.07,1.74-27.31-2.03-7.02-7.1-13.28-13.56-16.74-5.71-3.06-12.07-3.74-17.93-1.91-15.35,4.81-17.97,22.11-18.83,27.8-.73,4.84-2.86,15-5.33,26.77-6.38,30.46-15.55,74.21-18.1,106.01-9.76-2.63-19.4-6.01-29.43-9.52-24.59-8.62-50.02-17.53-79.19-15.36-59.28,4.39-115.62,30.72-154.58,72.23C9.09,272.69-10.66,358.1,12.82,432.7c13.56,43.09,39.46,80,64.51,115.68l87.83,125.15c11.7,16.66,24.95,35.55,43.1,49.51,30.36,23.36,67.55,28.48,94.29,28.48.88,0,1.74,0,2.6-.02,23.29-.29,46.18-4.75,68.32-9.06l1.38-.27c18.1-3.52,31.53-2.22,50.11-.41,3.02.29,6.15.6,9.43.89,26.51,2.39,53.87-5.25,75.06-20.98,24.45-18.14,35.98-42.47,47.13-66,2.99-6.31,6.08-12.84,9.37-19.11,4.22-8.04,8.43-16.34,12.5-24.36,14.55-28.66,29.6-58.29,48.37-83.41,30.61-40.97,50.02-83.86,57.69-127.49,5.48-31.14,4.82-63.7-1.89-94.17-7.1-32.2-20.4-61.11-39.56-85.91-8.62-11.16-18.5-21.41-29.5-30.61,10.12-9.32,19.6-19.75,30-31.84,18.88-21.95,41.77-42.07,63.9-61.53,8.36-7.35,17-14.94,25.3-22.53l15.21-13.9-19.51-6.65Z"/>
          <path class="cls-22" d="m728.4,54.03c-17-5.79-34.67-6.98-51.76-8.13-8.76-.59-17.04-1.14-25.21-2.28-14.56-2.02-28.63-5.87-43.53-9.95-9.03-2.47-18.37-5.03-27.81-7.13-35.64-7.95-74.81-5.95-110.29,5.61-33.53,10.93-61.06,29.38-80.48,53.79,2.95-10.95,5.95-22.02,8.95-32.94,1.98-7.2,4.7-17.07,1.74-27.31-2.03-7.02-7.1-13.28-13.56-16.74-5.71-3.06-12.07-3.74-17.93-1.91-15.35,4.81-17.97,22.11-18.83,27.8-.73,4.84-2.86,15-5.33,26.77-6.38,30.46-15.55,74.21-18.1,106.01-9.76-2.63-19.4-6.01-29.43-9.52-24.59-8.62-50.02-17.53-79.19-15.36-59.28,4.39-115.62,30.72-154.58,72.24C9.03,272.54-10.72,357.96,12.75,432.55c13.56,43.09,39.46,80,64.51,115.68l87.83,125.15c11.7,16.66,24.95,35.55,43.1,49.51,30.36,23.36,67.55,28.48,94.29,28.48.88,0,1.74,0,2.6-.02,23.29-.29,46.18-4.75,68.32-9.06l1.38-.27c18.1-3.52,31.53-2.22,50.11-.41,3.02.29,6.15.6,9.43.89,26.51,2.39,53.87-5.25,75.06-20.98,24.45-18.14,35.98-42.47,47.13-66,2.99-6.31,6.08-12.84,9.37-19.11,4.22-8.04,8.43-16.34,12.5-24.36,14.55-28.66,29.6-58.29,48.37-83.41,30.61-40.97,50.02-83.86,57.69-127.49,5.48-31.14,4.82-63.7-1.89-94.17-7.1-32.2-20.4-61.11-39.56-85.91-8.62-11.16-18.5-21.41-29.5-30.61,10.12-9.32,19.6-19.75,30-31.84,18.88-21.95,41.77-42.07,63.9-61.53,8.36-7.35,17-14.94,25.3-22.53l15.21-13.9-19.51-6.65Z"/>
          <path class="cls-57" d="m728.33,53.88c-17-5.79-34.67-6.98-51.76-8.13-8.76-.59-17.04-1.14-25.21-2.28-14.56-2.02-28.63-5.87-43.53-9.95-9.03-2.47-18.37-5.03-27.81-7.13-35.64-7.95-74.81-5.95-110.29,5.61-33.53,10.93-61.06,29.38-80.48,53.79,2.95-10.95,5.95-22.02,8.95-32.94,1.98-7.2,4.7-17.07,1.73-27.31-2.03-7.02-7.1-13.28-13.56-16.74-5.71-3.06-12.07-3.74-17.93-1.91-15.35,4.81-17.97,22.11-18.83,27.8-.73,4.84-2.86,15-5.33,26.77-6.38,30.46-15.55,74.21-18.1,106.01-9.76-2.63-19.4-6.01-29.43-9.52-24.59-8.62-50.02-17.53-79.19-15.36-59.28,4.39-115.62,30.72-154.58,72.24C8.96,272.4-10.79,357.81,12.68,432.41c13.56,43.09,39.46,80,64.51,115.68l87.83,125.15c11.7,16.66,24.95,35.55,43.1,49.52,30.36,23.36,67.55,28.48,94.29,28.48.88,0,1.74,0,2.6-.02,23.29-.29,46.18-4.75,68.32-9.06l1.38-.27c18.1-3.52,31.53-2.22,50.11-.41,3.02.29,6.15.6,9.43.89,26.51,2.39,53.87-5.25,75.06-20.98,24.45-18.14,35.98-42.47,47.13-66,2.99-6.31,6.08-12.84,9.37-19.11,4.22-8.04,8.43-16.34,12.5-24.36,14.55-28.66,29.6-58.29,48.37-83.41,30.61-40.97,50.02-83.86,57.69-127.49,5.48-31.14,4.82-63.7-1.89-94.17-7.1-32.2-20.4-61.11-39.56-85.91-8.62-11.16-18.5-21.41-29.5-30.61,10.12-9.32,19.6-19.75,30-31.84,18.88-21.95,41.77-42.07,63.9-61.53,8.36-7.35,17-14.94,25.3-22.53l15.21-13.9-19.51-6.65Z"/>
          <path class="cls-34" d="m728.26,53.74c-17-5.79-34.67-6.98-51.76-8.13-8.76-.59-17.04-1.14-25.21-2.28-14.56-2.02-28.63-5.87-43.53-9.95-9.03-2.47-18.37-5.03-27.81-7.13-35.64-7.95-74.81-5.95-110.29,5.61-33.53,10.93-61.06,29.38-80.48,53.79,2.95-10.95,5.95-22.02,8.95-32.94,1.98-7.2,4.7-17.07,1.73-27.31-2.03-7.02-7.1-13.28-13.56-16.74-5.71-3.06-12.07-3.74-17.93-1.91-15.35,4.81-17.97,22.11-18.83,27.8-.73,4.84-2.86,15-5.33,26.77-6.38,30.46-15.55,74.21-18.1,106.01-9.76-2.63-19.4-6.01-29.43-9.52-24.59-8.62-50.02-17.53-79.19-15.36-59.28,4.39-115.62,30.72-154.58,72.24C8.89,272.26-10.86,357.67,12.62,432.27c13.56,43.09,39.46,80,64.51,115.68l87.83,125.15c11.7,16.66,24.95,35.55,43.1,49.52,30.36,23.36,67.55,28.48,94.29,28.48.88,0,1.74,0,2.6-.02,23.29-.29,46.18-4.75,68.32-9.06l1.38-.27c18.1-3.52,31.53-2.22,50.11-.41,3.02.29,6.15.6,9.43.89,26.51,2.39,53.87-5.25,75.06-20.98,24.45-18.14,35.98-42.47,47.13-66,2.99-6.31,6.08-12.84,9.37-19.11,4.22-8.04,8.43-16.34,12.5-24.36,14.55-28.66,29.6-58.29,48.37-83.41,30.61-40.97,50.02-83.86,57.69-127.49,5.48-31.14,4.82-63.7-1.89-94.17-7.1-32.2-20.4-61.11-39.56-85.91-8.62-11.16-18.5-21.41-29.5-30.61,10.12-9.32,19.6-19.75,30-31.84,18.88-21.95,41.77-42.07,63.9-61.53,8.36-7.35,17-14.94,25.3-22.53l15.21-13.9-19.51-6.65Z"/>
          <path class="cls-36" d="m728.2,53.6c-17-5.79-34.67-6.98-51.76-8.13-8.76-.59-17.04-1.14-25.21-2.28-14.56-2.02-28.63-5.87-43.53-9.95-9.03-2.47-18.37-5.03-27.81-7.13-35.64-7.95-74.81-5.95-110.29,5.61-33.53,10.93-61.06,29.38-80.48,53.79,2.95-10.95,5.95-22.02,8.95-32.94,1.98-7.2,4.7-17.07,1.74-27.31-2.03-7.02-7.1-13.28-13.56-16.74-5.71-3.06-12.07-3.74-17.93-1.91-15.35,4.81-17.97,22.11-18.83,27.8-.73,4.84-2.86,15-5.33,26.77-6.38,30.46-15.55,74.21-18.1,106.01-9.76-2.63-19.4-6.01-29.43-9.52-24.59-8.62-50.02-17.53-79.19-15.36-59.28,4.39-115.62,30.72-154.58,72.23C8.82,272.11-10.93,357.53,12.55,432.12c13.56,43.09,39.46,80,64.51,115.68l87.83,125.15c11.7,16.66,24.95,35.55,43.1,49.51,30.36,23.36,67.55,28.48,94.29,28.48.88,0,1.74,0,2.6-.02,23.29-.29,46.18-4.75,68.32-9.06l1.38-.27c18.1-3.52,31.53-2.22,50.11-.41,3.02.29,6.15.6,9.43.89,26.51,2.39,53.87-5.25,75.06-20.98,24.45-18.14,35.98-42.47,47.13-66,2.99-6.31,6.08-12.84,9.37-19.11,4.22-8.04,8.43-16.34,12.5-24.36,14.55-28.66,29.6-58.29,48.37-83.41,30.61-40.97,50.02-83.86,57.69-127.49,5.48-31.14,4.82-63.7-1.89-94.17-7.1-32.2-20.4-61.11-39.56-85.91-8.62-11.16-18.5-21.41-29.5-30.61,10.12-9.32,19.6-19.75,30-31.84,18.88-21.95,41.77-42.07,63.9-61.53,8.36-7.35,17-14.94,25.3-22.53l15.21-13.9-19.51-6.65Z"/>
          <path class="cls-17" d="m728.13,53.46c-17-5.79-34.67-6.98-51.76-8.13-8.76-.59-17.04-1.14-25.21-2.28-14.56-2.02-28.63-5.87-43.53-9.95-9.03-2.47-18.37-5.03-27.81-7.13-35.64-7.95-74.81-5.95-110.29,5.61-33.53,10.93-61.06,29.38-80.48,53.79,2.95-10.95,5.95-22.02,8.95-32.94,1.98-7.2,4.7-17.07,1.74-27.31-2.03-7.02-7.1-13.28-13.56-16.74-5.71-3.06-12.07-3.74-17.93-1.91-15.35,4.81-17.97,22.11-18.83,27.8-.73,4.84-2.86,15-5.33,26.77-6.38,30.46-15.55,74.21-18.1,106.01-9.76-2.63-19.4-6.01-29.43-9.52-24.59-8.62-50.02-17.53-79.19-15.36-59.28,4.39-115.62,30.72-154.58,72.23C8.76,271.97-10.99,357.38,12.48,431.98c13.56,43.09,39.46,80,64.51,115.68l87.83,125.15c11.7,16.66,24.95,35.55,43.1,49.51,30.36,23.36,67.55,28.48,94.29,28.48.88,0,1.74,0,2.6-.02,23.29-.29,46.18-4.75,68.32-9.06l1.38-.27c18.1-3.52,31.53-2.22,50.11-.41,3.02.29,6.15.6,9.43.89,26.51,2.39,53.87-5.25,75.06-20.98,24.45-18.14,35.98-42.47,47.13-66,2.99-6.31,6.08-12.84,9.37-19.11,4.22-8.04,8.43-16.34,12.5-24.36,14.55-28.66,29.6-58.29,48.37-83.41,30.61-40.97,50.02-83.86,57.69-127.49,5.48-31.14,4.82-63.7-1.89-94.17-7.1-32.2-20.4-61.11-39.56-85.91-8.62-11.16-18.5-21.41-29.5-30.61,10.12-9.32,19.6-19.75,30-31.84,18.88-21.95,41.77-42.07,63.9-61.53,8.36-7.35,17-14.94,25.3-22.53l15.21-13.9-19.51-6.65Z"/>
          <path class="cls-9" d="m728.06,53.31c-17-5.79-34.67-6.98-51.76-8.13-8.76-.59-17.04-1.14-25.21-2.28-14.56-2.02-28.63-5.87-43.53-9.95-9.03-2.47-18.37-5.03-27.81-7.13-35.64-7.95-74.81-5.95-110.29,5.61-33.53,10.93-61.06,29.38-80.48,53.79,2.95-10.95,5.95-22.02,8.95-32.94,1.98-7.2,4.7-17.07,1.73-27.31-2.03-7.02-7.1-13.28-13.56-16.74-5.71-3.06-12.07-3.74-17.93-1.91-15.35,4.81-17.97,22.11-18.83,27.8-.73,4.84-2.86,15-5.33,26.77-6.38,30.46-15.55,74.21-18.1,106.01-9.76-2.63-19.4-6.01-29.43-9.52-24.59-8.62-50.02-17.53-79.19-15.36-59.28,4.39-115.62,30.72-154.58,72.23C8.69,271.83-11.06,357.24,12.42,431.84c13.56,43.09,39.46,80,64.51,115.68l87.83,125.15c11.7,16.66,24.95,35.55,43.1,49.52,30.36,23.36,67.55,28.48,94.29,28.48.88,0,1.74,0,2.6-.02,23.29-.29,46.18-4.75,68.32-9.06l1.38-.27c18.1-3.52,31.53-2.22,50.11-.41,3.02.29,6.15.6,9.43.89,26.51,2.39,53.87-5.25,75.06-20.98,24.45-18.14,35.98-42.47,47.13-66,2.99-6.31,6.08-12.84,9.37-19.11,4.22-8.04,8.43-16.34,12.5-24.36,14.55-28.66,29.6-58.29,48.37-83.41,30.61-40.97,50.02-83.86,57.69-127.49,5.48-31.14,4.82-63.7-1.89-94.17-7.1-32.2-20.4-61.11-39.56-85.91-8.62-11.16-18.5-21.41-29.5-30.61,10.12-9.32,19.6-19.75,30-31.84,18.88-21.95,41.77-42.07,63.9-61.53,8.36-7.35,17-14.94,25.3-22.53l15.21-13.9-19.51-6.65Z"/>
          <path class="cls-55" d="m727.99,53.17c-17-5.79-34.67-6.98-51.76-8.13-8.76-.59-17.04-1.14-25.21-2.28-14.56-2.02-28.63-5.87-43.53-9.95-9.03-2.47-18.37-5.03-27.81-7.13-35.64-7.95-74.81-5.95-110.29,5.61-33.53,10.93-61.06,29.38-80.48,53.79,2.95-10.95,5.95-22.02,8.95-32.94,1.98-7.2,4.7-17.07,1.73-27.31-2.03-7.02-7.1-13.28-13.56-16.74-5.71-3.06-12.07-3.74-17.93-1.91-15.35,4.81-17.97,22.11-18.83,27.8-.73,4.84-2.86,15-5.33,26.77-6.38,30.46-15.55,74.21-18.1,106.01-9.76-2.63-19.4-6.01-29.43-9.52-24.59-8.62-50.02-17.53-79.19-15.36-59.28,4.39-115.62,30.72-154.58,72.23C8.62,271.68-11.13,357.1,12.35,431.69c13.56,43.09,39.46,80,64.51,115.68l87.83,125.15c11.7,16.66,24.95,35.55,43.1,49.52,30.36,23.36,67.55,28.48,94.29,28.48.88,0,1.74,0,2.6-.02,23.29-.29,46.18-4.75,68.32-9.06l1.38-.27c18.1-3.52,31.53-2.22,50.11-.41,3.02.29,6.15.6,9.43.89,26.51,2.39,53.87-5.25,75.06-20.98,24.45-18.14,35.98-42.47,47.13-66,2.99-6.31,6.08-12.84,9.37-19.11,4.22-8.04,8.43-16.34,12.5-24.36,14.55-28.66,29.6-58.29,48.37-83.41,30.61-40.97,50.02-83.86,57.69-127.49,5.48-31.14,4.82-63.7-1.89-94.17-7.1-32.2-20.4-61.11-39.56-85.91-8.62-11.16-18.5-21.41-29.5-30.61,10.12-9.32,19.6-19.75,30-31.84,18.88-21.95,41.77-42.07,63.9-61.53,8.36-7.35,17-14.94,25.3-22.53l15.21-13.9-19.51-6.65Z"/>
          <path class="cls-39" d="m727.93,53.03c-17-5.79-34.67-6.98-51.76-8.13-8.76-.59-17.04-1.14-25.21-2.28-14.56-2.02-28.63-5.87-43.53-9.95-9.03-2.47-18.37-5.03-27.81-7.13-35.64-7.95-74.81-5.95-110.29,5.61-33.53,10.93-61.06,29.38-80.48,53.79,2.95-10.95,5.95-22.02,8.95-32.94,1.98-7.2,4.7-17.07,1.74-27.31-2.03-7.02-7.1-13.28-13.56-16.74-5.71-3.06-12.07-3.74-17.93-1.91-15.35,4.81-17.97,22.11-18.83,27.8-.73,4.84-2.86,15-5.33,26.77-6.38,30.46-15.55,74.21-18.1,106.01-9.76-2.63-19.4-6.01-29.43-9.52-24.59-8.62-50.02-17.53-79.19-15.36-59.28,4.39-115.62,30.72-154.58,72.23C8.55,271.54-11.19,356.95,12.28,431.55c13.56,43.09,39.46,80,64.51,115.68l87.83,125.15c11.7,16.66,24.95,35.55,43.1,49.52,30.36,23.36,67.55,28.48,94.29,28.48.88,0,1.74,0,2.6-.02,23.29-.29,46.18-4.75,68.32-9.06l1.38-.27c18.1-3.52,31.53-2.22,50.11-.41,3.02.29,6.15.6,9.43.89,26.51,2.39,53.87-5.25,75.06-20.98,24.45-18.14,35.98-42.47,47.13-66,2.99-6.31,6.08-12.84,9.37-19.11,4.22-8.04,8.43-16.34,12.5-24.36,14.55-28.66,29.6-58.29,48.37-83.41,30.61-40.97,50.02-83.86,57.69-127.49,5.48-31.14,4.82-63.7-1.89-94.17-7.1-32.2-20.4-61.11-39.56-85.91-8.62-11.16-18.5-21.41-29.5-30.61,10.12-9.32,19.6-19.75,30-31.84,18.88-21.95,41.77-42.07,63.9-61.53,8.36-7.35,17-14.94,25.3-22.53l15.21-13.9-19.51-6.65Z"/>
          <path class="cls-31" d="m727.86,52.88c-17-5.79-34.67-6.98-51.76-8.13-8.76-.59-17.04-1.14-25.21-2.28-14.56-2.02-28.63-5.87-43.53-9.95-9.03-2.47-18.37-5.03-27.81-7.13-35.64-7.95-74.81-5.95-110.29,5.61-33.53,10.93-61.06,29.38-80.48,53.79,2.95-10.95,5.95-22.02,8.95-32.94,1.98-7.2,4.7-17.07,1.74-27.31-2.03-7.02-7.1-13.28-13.56-16.74-5.71-3.06-12.07-3.74-17.93-1.91-15.35,4.81-17.97,22.11-18.83,27.8-.73,4.84-2.86,15-5.33,26.77-6.38,30.46-15.55,74.21-18.1,106.01-9.76-2.63-19.4-6.01-29.43-9.52-24.59-8.62-50.02-17.53-79.19-15.36-59.28,4.39-115.62,30.72-154.58,72.23C8.49,271.4-11.26,356.81,12.21,431.41c13.56,43.09,39.46,80,64.51,115.68l87.83,125.15c11.7,16.66,24.95,35.55,43.1,49.51,30.36,23.36,67.55,28.48,94.29,28.48.88,0,1.74,0,2.6-.02,23.29-.29,46.18-4.75,68.32-9.06l1.38-.27c18.1-3.52,31.53-2.22,50.11-.41,3.02.29,6.15.6,9.43.89,26.51,2.39,53.87-5.25,75.06-20.98,24.45-18.14,35.98-42.47,47.13-66,2.99-6.31,6.08-12.84,9.37-19.11,4.22-8.04,8.43-16.34,12.5-24.36,14.55-28.66,29.6-58.29,48.37-83.41,30.61-40.97,50.02-83.86,57.69-127.49,5.48-31.14,4.82-63.7-1.89-94.17-7.1-32.2-20.4-61.11-39.56-85.91-8.62-11.16-18.5-21.41-29.5-30.61,10.12-9.32,19.6-19.75,30-31.84,18.88-21.95,41.77-42.07,63.9-61.53,8.36-7.35,17-14.94,25.3-22.53l15.21-13.9-19.51-6.65Z"/>
          <path class="cls-16" d="m727.79,52.74c-17-5.79-34.67-6.98-51.76-8.13-8.76-.59-17.04-1.14-25.21-2.28-14.56-2.02-28.63-5.87-43.53-9.95-9.03-2.47-18.37-5.03-27.81-7.13-35.64-7.95-74.81-5.95-110.29,5.61-33.53,10.93-61.06,29.38-80.48,53.79,2.95-10.95,5.95-22.02,8.95-32.94,1.98-7.2,4.7-17.07,1.73-27.31-2.03-7.02-7.1-13.28-13.56-16.74-5.71-3.06-12.07-3.74-17.93-1.91-15.35,4.81-17.97,22.11-18.83,27.8-.73,4.84-2.86,15-5.33,26.77-6.38,30.46-15.55,74.21-18.1,106.01-9.76-2.63-19.4-6.01-29.43-9.52-24.59-8.62-50.02-17.53-79.19-15.36-59.28,4.39-115.62,30.72-154.58,72.24C8.42,271.25-11.33,356.67,12.15,431.27c13.56,43.09,39.46,80,64.51,115.68l87.83,125.15c11.7,16.66,24.95,35.55,43.1,49.51,30.36,23.36,67.55,28.48,94.29,28.48.88,0,1.74,0,2.6-.02,23.29-.29,46.18-4.75,68.32-9.06l1.38-.27c18.1-3.52,31.53-2.22,50.11-.41,3.02.29,6.15.6,9.43.89,26.51,2.39,53.87-5.25,75.06-20.98,24.45-18.14,35.98-42.47,47.13-66,2.99-6.31,6.08-12.84,9.37-19.11,4.22-8.04,8.43-16.34,12.5-24.36,14.55-28.66,29.6-58.29,48.37-83.41,30.61-40.97,50.02-83.86,57.69-127.49,5.48-31.14,4.82-63.7-1.89-94.17-7.1-32.2-20.4-61.11-39.56-85.91-8.62-11.16-18.5-21.41-29.5-30.61,10.12-9.32,19.6-19.75,30-31.84,18.88-21.95,41.77-42.07,63.9-61.53,8.36-7.35,17-14.94,25.3-22.53l15.21-13.9-19.51-6.65Z"/>
          <path class="cls-10" d="m727.72,52.6c-17-5.79-34.67-6.98-51.76-8.13-8.76-.59-17.04-1.14-25.21-2.28-14.56-2.02-28.63-5.87-43.53-9.95-9.03-2.47-18.37-5.03-27.81-7.13-35.64-7.95-74.81-5.95-110.29,5.61-33.53,10.93-61.06,29.38-80.48,53.79,2.95-10.95,5.95-22.02,8.95-32.94,1.98-7.2,4.7-17.07,1.73-27.31-2.03-7.02-7.1-13.28-13.56-16.74-5.71-3.06-12.07-3.74-17.93-1.91-15.35,4.81-17.97,22.11-18.83,27.8-.73,4.84-2.86,15-5.33,26.77-6.38,30.46-15.55,74.21-18.1,106.01-9.76-2.63-19.4-6.01-29.43-9.52-24.59-8.62-50.02-17.53-79.19-15.36-59.28,4.39-115.62,30.72-154.58,72.24C8.35,271.11-11.4,356.52,12.08,431.12c13.56,43.09,39.46,80,64.51,115.68l87.83,125.15c11.7,16.66,24.95,35.55,43.1,49.52,30.36,23.36,67.55,28.48,94.29,28.48.88,0,1.74,0,2.6-.02,23.29-.29,46.18-4.75,68.32-9.06l1.38-.27c18.1-3.52,31.53-2.22,50.11-.41,3.02.29,6.15.6,9.43.89,26.51,2.39,53.87-5.25,75.06-20.98,24.45-18.14,35.98-42.47,47.13-66,2.99-6.31,6.08-12.84,9.37-19.11,4.22-8.04,8.43-16.34,12.5-24.36,14.55-28.66,29.6-58.29,48.37-83.41,30.61-40.97,50.02-83.86,57.69-127.49,5.48-31.14,4.82-63.7-1.89-94.17-7.1-32.2-20.4-61.11-39.56-85.91-8.62-11.16-18.5-21.41-29.5-30.61,10.12-9.32,19.6-19.75,30-31.84,18.88-21.95,41.77-42.07,63.9-61.53,8.36-7.35,17-14.94,25.3-22.53l15.21-13.9-19.51-6.65Z"/>
          <path class="cls-48" d="m727.66,52.45c-17-5.79-34.67-6.98-51.76-8.13-8.76-.59-17.04-1.14-25.21-2.28-14.56-2.02-28.63-5.87-43.53-9.95-9.03-2.47-18.37-5.03-27.81-7.13-35.64-7.95-74.81-5.95-110.29,5.61-33.53,10.93-61.06,29.38-80.48,53.79,2.95-10.95,5.95-22.02,8.95-32.94,1.98-7.2,4.7-17.07,1.74-27.31-2.03-7.02-7.1-13.28-13.56-16.74-5.71-3.06-12.07-3.74-17.93-1.91-15.35,4.81-17.97,22.11-18.83,27.8-.73,4.84-2.86,15-5.33,26.77-6.38,30.46-15.55,74.21-18.1,106.01-9.76-2.63-19.4-6.01-29.43-9.52-24.59-8.62-50.02-17.53-79.19-15.36-59.28,4.39-115.62,30.72-154.58,72.24C8.28,270.97-11.46,356.38,12.01,430.98c13.56,43.09,39.46,80,64.51,115.68l87.83,125.15c11.7,16.66,24.95,35.55,43.1,49.52,30.36,23.36,67.55,28.48,94.29,28.48.88,0,1.74,0,2.6-.02,23.29-.29,46.18-4.75,68.32-9.06l1.38-.27c18.1-3.52,31.53-2.22,50.11-.41,3.02.29,6.15.6,9.43.89,26.51,2.39,53.87-5.25,75.06-20.98,24.45-18.14,35.98-42.47,47.13-66,2.99-6.31,6.08-12.84,9.37-19.11,4.22-8.04,8.43-16.34,12.5-24.36,14.55-28.66,29.6-58.29,48.37-83.41,30.61-40.97,50.02-83.86,57.69-127.49,5.48-31.14,4.82-63.7-1.89-94.17-7.1-32.2-20.4-61.11-39.56-85.91-8.62-11.16-18.5-21.41-29.5-30.61,10.12-9.32,19.6-19.75,30-31.84,18.88-21.95,41.77-42.07,63.9-61.53,8.36-7.35,17-14.94,25.3-22.53l15.21-13.9-19.51-6.65Z"/>
          <path class="cls-11" d="m727.59,52.31c-17-5.79-34.67-6.98-51.76-8.13-8.76-.59-17.04-1.14-25.21-2.28-14.56-2.02-28.63-5.87-43.53-9.95-9.03-2.47-18.37-5.03-27.81-7.13-35.64-7.95-74.81-5.95-110.29,5.61-33.53,10.93-61.06,29.38-80.48,53.79,2.95-10.96,5.95-22.02,8.95-32.94,1.98-7.2,4.7-17.07,1.74-27.31-2.03-7.02-7.1-13.28-13.56-16.74-5.71-3.06-12.07-3.74-17.93-1.91-15.35,4.81-17.97,22.11-18.83,27.8-.73,4.84-2.86,15-5.33,26.77-6.38,30.46-15.55,74.21-18.1,106.01-9.76-2.63-19.4-6.01-29.43-9.52-24.59-8.62-50.02-17.53-79.19-15.36-59.28,4.39-115.62,30.72-154.58,72.23C8.22,270.82-11.53,356.24,11.94,430.84c13.56,43.09,39.46,80,64.51,115.68l87.83,125.15c11.7,16.66,24.95,35.55,43.1,49.51,30.36,23.36,67.55,28.48,94.29,28.48.88,0,1.74,0,2.6-.02,23.29-.29,46.18-4.75,68.32-9.06l1.38-.27c18.1-3.52,31.53-2.22,50.11-.41,3.02.29,6.15.6,9.43.89,26.51,2.39,53.87-5.25,75.06-20.98,24.45-18.14,35.98-42.47,47.13-66,2.99-6.31,6.08-12.84,9.37-19.11,4.22-8.04,8.43-16.34,12.5-24.36,14.55-28.66,29.6-58.29,48.37-83.41,30.61-40.97,50.02-83.86,57.69-127.49,5.48-31.14,4.82-63.7-1.89-94.17-7.1-32.2-20.4-61.11-39.56-85.91-8.62-11.16-18.5-21.41-29.5-30.61,10.12-9.32,19.6-19.75,30-31.84,18.88-21.95,41.77-42.07,63.9-61.53,8.36-7.35,17-14.94,25.3-22.53l15.21-13.9-19.51-6.65Z"/>
          <path class="cls-47" d="m727.52,52.17c-17-5.79-34.67-6.98-51.76-8.13-8.76-.59-17.04-1.14-25.21-2.28-14.56-2.02-28.63-5.87-43.53-9.95-9.03-2.47-18.37-5.03-27.81-7.13-35.64-7.95-74.81-5.95-110.29,5.61-33.53,10.93-61.06,29.38-80.48,53.79,2.95-10.95,5.95-22.02,8.95-32.94,1.98-7.2,4.7-17.07,1.73-27.31-2.03-7.02-7.1-13.28-13.56-16.74-5.71-3.06-12.07-3.74-17.93-1.91-15.35,4.81-17.97,22.11-18.83,27.8-.73,4.84-2.86,15-5.33,26.77-6.38,30.46-15.55,74.21-18.1,106.01-9.76-2.63-19.4-6.01-29.43-9.52-24.59-8.62-50.02-17.53-79.19-15.36-59.28,4.39-115.62,30.72-154.58,72.23C8.15,270.68-11.6,356.09,11.88,430.69c13.56,43.09,39.46,80,64.51,115.68l87.83,125.15c11.7,16.66,24.95,35.55,43.1,49.51,30.36,23.36,67.55,28.48,94.29,28.48.88,0,1.74,0,2.6-.02,23.29-.29,46.18-4.75,68.32-9.06l1.38-.27c18.1-3.52,31.53-2.22,50.11-.41,3.02.29,6.15.6,9.43.89,26.51,2.39,53.87-5.25,75.06-20.98,24.45-18.14,35.98-42.47,47.13-66,2.99-6.31,6.08-12.84,9.37-19.11,4.22-8.04,8.43-16.34,12.5-24.36,14.55-28.66,29.6-58.29,48.37-83.41,30.61-40.97,50.02-83.86,57.69-127.49,5.48-31.14,4.82-63.7-1.89-94.17-7.1-32.2-20.4-61.11-39.56-85.91-8.62-11.16-18.5-21.41-29.5-30.61,10.12-9.32,19.6-19.75,30-31.84,18.88-21.95,41.77-42.07,63.9-61.53,8.36-7.35,17-14.94,25.3-22.53l15.21-13.9-19.51-6.65Z"/>
          <path class="cls-37" d="m727.45,52.02c-17-5.79-34.67-6.98-51.76-8.13-8.76-.59-17.04-1.14-25.21-2.28-14.56-2.02-28.63-5.87-43.53-9.95-9.03-2.47-18.37-5.03-27.81-7.13-35.64-7.95-74.81-5.95-110.29,5.61-33.53,10.93-61.06,29.38-80.48,53.79,2.95-10.95,5.95-22.02,8.95-32.94,1.98-7.2,4.7-17.07,1.73-27.31-2.03-7.02-7.1-13.28-13.56-16.74-5.71-3.06-12.07-3.74-17.93-1.91-15.35,4.81-17.97,22.11-18.83,27.8-.73,4.84-2.86,15-5.33,26.77-6.38,30.46-15.55,74.21-18.1,106.01-9.76-2.63-19.4-6.01-29.43-9.52-24.59-8.62-50.02-17.53-79.19-15.36-59.28,4.39-115.62,30.72-154.58,72.23C8.08,270.54-11.67,355.95,11.81,430.55c13.56,43.09,39.46,80,64.51,115.68l87.83,125.15c11.7,16.66,24.95,35.55,43.1,49.52,30.36,23.36,67.55,28.48,94.29,28.48.88,0,1.74,0,2.6-.02,23.29-.29,46.18-4.75,68.32-9.06l1.38-.27c18.1-3.52,31.53-2.22,50.11-.41,3.02.29,6.15.6,9.43.89,26.51,2.39,53.87-5.25,75.06-20.98,24.45-18.14,35.98-42.47,47.13-66,2.99-6.31,6.08-12.84,9.37-19.11,4.22-8.04,8.43-16.34,12.5-24.36,14.55-28.66,29.6-58.29,48.37-83.41,30.61-40.97,50.02-83.86,57.69-127.49,5.48-31.14,4.82-63.7-1.89-94.17-7.1-32.2-20.4-61.11-39.56-85.91-8.62-11.16-18.5-21.41-29.5-30.61,10.12-9.32,19.6-19.75,30-31.84,18.88-21.95,41.77-42.07,63.9-61.53,8.36-7.35,17-14.94,25.3-22.53l15.21-13.9-19.51-6.65Z"/>
          <path class="cls-56" d="m727.39,51.88c-17-5.79-34.67-6.98-51.76-8.13-8.76-.59-17.04-1.14-25.21-2.28-14.56-2.02-28.63-5.87-43.53-9.95-9.03-2.47-18.37-5.03-27.81-7.13-35.64-7.95-74.81-5.95-110.29,5.61-33.53,10.93-61.06,29.38-80.48,53.79,2.95-10.95,5.95-22.02,8.95-32.94,1.98-7.2,4.7-17.07,1.74-27.31-2.03-7.02-7.1-13.28-13.56-16.74-5.71-3.06-12.07-3.74-17.93-1.91-15.35,4.81-17.97,22.11-18.83,27.8-.73,4.84-2.86,15-5.33,26.77-6.38,30.46-15.55,74.21-18.1,106.01-9.76-2.63-19.4-6.01-29.43-9.52-24.59-8.62-50.02-17.53-79.19-15.36-59.28,4.39-115.62,30.72-154.58,72.23C8.01,270.39-11.73,355.81,11.74,430.41c13.56,43.09,39.46,80,64.51,115.68l87.83,125.15c11.7,16.66,24.95,35.55,43.1,49.52,30.36,23.36,67.55,28.48,94.29,28.48.88,0,1.74,0,2.6-.02,23.29-.29,46.18-4.75,68.32-9.06l1.38-.27c18.1-3.52,31.53-2.22,50.11-.41,3.02.29,6.15.6,9.43.89,26.51,2.39,53.87-5.25,75.06-20.98,24.45-18.14,35.98-42.47,47.13-66,2.99-6.31,6.08-12.84,9.37-19.11,4.22-8.04,8.43-16.34,12.5-24.36,14.55-28.66,29.6-58.29,48.37-83.41,30.61-40.97,50.02-83.86,57.69-127.49,5.48-31.14,4.82-63.7-1.89-94.17-7.1-32.2-20.4-61.11-39.56-85.91-8.62-11.16-18.5-21.41-29.5-30.61,10.12-9.32,19.6-19.75,30-31.84,18.88-21.95,41.77-42.07,63.9-61.53,8.36-7.35,17-14.94,25.3-22.53l15.21-13.9-19.51-6.65Z"/>
          <path class="cls-14" d="m727.32,51.74c-17-5.79-34.67-6.98-51.76-8.13-8.76-.59-17.04-1.14-25.21-2.28-14.56-2.02-28.63-5.87-43.53-9.95-9.03-2.47-18.37-5.03-27.81-7.13-35.64-7.95-74.81-5.95-110.29,5.61-33.53,10.93-61.06,29.38-80.48,53.79,2.95-10.95,5.95-22.02,8.95-32.94,1.98-7.2,4.7-17.07,1.74-27.31-2.03-7.02-7.1-13.28-13.56-16.74-5.71-3.06-12.07-3.74-17.93-1.91-15.35,4.81-17.97,22.11-18.83,27.8-.73,4.84-2.86,15-5.33,26.77-6.38,30.46-15.55,74.21-18.1,106.01-9.76-2.63-19.4-6.01-29.43-9.52-24.59-8.62-50.02-17.53-79.19-15.36-59.28,4.39-115.62,30.72-154.58,72.23C7.95,270.25-11.8,355.66,11.67,430.26c13.56,43.09,39.46,80,64.51,115.68l87.83,125.15c11.7,16.66,24.95,35.55,43.1,49.52,30.36,23.36,67.55,28.48,94.29,28.48.88,0,1.74,0,2.6-.02,23.29-.29,46.18-4.75,68.32-9.06l1.38-.27c18.1-3.52,31.53-2.22,50.11-.41,3.02.29,6.15.6,9.43.89,26.51,2.39,53.87-5.25,75.06-20.98,24.45-18.14,35.98-42.47,47.13-66,2.99-6.31,6.08-12.84,9.37-19.11,4.22-8.04,8.43-16.34,12.5-24.36,14.55-28.66,29.6-58.29,48.37-83.41,30.61-40.97,50.02-83.86,57.69-127.49,5.48-31.14,4.82-63.7-1.89-94.17-7.1-32.2-20.4-61.11-39.56-85.91-8.62-11.16-18.5-21.41-29.5-30.61,10.12-9.32,19.6-19.75,30-31.84,18.88-21.95,41.77-42.07,63.9-61.53,8.36-7.35,17-14.94,25.3-22.53l15.21-13.9-19.51-6.65Z"/>
          <path class="cls-27" d="m727.25,51.59c-17-5.79-34.67-6.98-51.76-8.13-8.76-.59-17.04-1.14-25.21-2.28-14.56-2.02-28.63-5.87-43.53-9.95-9.03-2.47-18.37-5.03-27.81-7.13-35.64-7.95-74.81-5.95-110.29,5.61-33.53,10.93-61.06,29.38-80.48,53.79,2.95-10.95,5.95-22.02,8.95-32.94,1.98-7.2,4.7-17.07,1.73-27.31-2.03-7.02-7.1-13.28-13.56-16.74-5.71-3.06-12.07-3.74-17.93-1.91-15.35,4.81-17.97,22.11-18.83,27.8-.73,4.84-2.86,15-5.33,26.77-6.38,30.46-15.55,74.21-18.1,106.01-9.76-2.63-19.4-6.01-29.43-9.52-24.59-8.62-50.02-17.53-79.19-15.36-59.28,4.39-115.62,30.72-154.58,72.23C7.88,270.11-11.87,355.52,11.61,430.12c13.56,43.09,39.46,80,64.51,115.68l87.83,125.15c11.7,16.66,24.95,35.55,43.1,49.51,30.36,23.36,67.55,28.48,94.29,28.48.88,0,1.74,0,2.6-.02,23.29-.29,46.18-4.75,68.32-9.06l1.38-.27c18.1-3.52,31.53-2.22,50.11-.41,3.02.29,6.15.6,9.43.89,26.51,2.39,53.87-5.25,75.06-20.98,24.45-18.14,35.98-42.47,47.13-66,2.99-6.31,6.08-12.84,9.37-19.11,4.22-8.04,8.43-16.34,12.5-24.36,14.55-28.66,29.6-58.29,48.37-83.41,30.61-40.97,50.02-83.86,57.69-127.49,5.48-31.14,4.82-63.7-1.89-94.17-7.1-32.2-20.4-61.11-39.56-85.91-8.62-11.16-18.5-21.41-29.5-30.61,10.12-9.32,19.6-19.75,30-31.84,18.88-21.95,41.77-42.07,63.9-61.53,8.36-7.35,17-14.94,25.3-22.53l15.21-13.9-19.51-6.65Z"/>
          <path class="cls-38" d="m727.18,51.45c-17-5.79-34.67-6.98-51.76-8.13-8.76-.59-17.04-1.14-25.21-2.28-14.56-2.02-28.63-5.87-43.53-9.95-9.03-2.47-18.37-5.03-27.81-7.13-35.64-7.95-74.81-5.95-110.29,5.61-33.53,10.93-61.06,29.38-80.48,53.79,2.95-10.95,5.95-22.02,8.95-32.94,1.98-7.2,4.7-17.07,1.73-27.31-2.03-7.02-7.1-13.28-13.56-16.74-5.71-3.06-12.07-3.74-17.93-1.91-15.35,4.81-17.97,22.11-18.83,27.8-.73,4.84-2.86,15-5.33,26.77-6.38,30.46-15.55,74.21-18.1,106.01-9.76-2.63-19.4-6.01-29.43-9.52-24.59-8.62-50.02-17.53-79.19-15.36-59.28,4.39-115.62,30.72-154.58,72.23C7.81,269.96-11.94,355.38,11.54,429.98c13.56,43.09,39.46,80,64.51,115.68l87.83,125.15c11.7,16.66,24.95,35.55,43.1,49.51,30.36,23.36,67.55,28.48,94.29,28.48.88,0,1.74,0,2.6-.02,23.29-.29,46.18-4.75,68.32-9.06l1.38-.27c18.1-3.52,31.53-2.22,50.11-.41,3.02.29,6.15.6,9.43.89,26.51,2.39,53.87-5.25,75.06-20.98,24.45-18.14,35.98-42.47,47.13-66,2.99-6.31,6.08-12.84,9.37-19.11,4.22-8.04,8.43-16.34,12.5-24.36,14.55-28.66,29.6-58.29,48.37-83.41,30.61-40.97,50.02-83.86,57.69-127.49,5.48-31.14,4.82-63.7-1.89-94.17-7.1-32.2-20.4-61.11-39.56-85.91-8.62-11.16-18.5-21.41-29.5-30.61,10.12-9.32,19.6-19.75,30-31.84,18.88-21.95,41.77-42.07,63.9-61.53,8.36-7.35,17-14.94,25.3-22.53l15.21-13.9-19.51-6.65Z"/>
          <path class="cls-4" d="m727.12,51.31c-17-5.79-34.67-6.98-51.76-8.13-8.76-.59-17.04-1.14-25.21-2.28-14.56-2.02-28.63-5.87-43.53-9.95-9.03-2.47-18.37-5.03-27.81-7.13-35.64-7.95-74.81-5.95-110.29,5.61-33.53,10.93-61.06,29.38-80.48,53.79,2.95-10.95,5.95-22.02,8.95-32.94,1.98-7.2,4.7-17.07,1.74-27.31-2.03-7.02-7.1-13.28-13.56-16.74-5.71-3.06-12.07-3.74-17.93-1.91-15.35,4.81-17.97,22.11-18.83,27.8-.73,4.84-2.86,15-5.33,26.77-6.38,30.46-15.55,74.21-18.1,106.01-9.76-2.63-19.4-6.01-29.43-9.52-24.59-8.62-50.02-17.53-79.19-15.36-59.28,4.39-115.62,30.72-154.58,72.24C7.74,269.82-12,355.23,11.47,429.83c13.56,43.09,39.46,80,64.51,115.68l87.83,125.15c11.7,16.66,24.95,35.55,43.1,49.51,30.36,23.36,67.55,28.48,94.29,28.48.88,0,1.74,0,2.6-.02,23.29-.29,46.18-4.75,68.32-9.06l1.38-.27c18.1-3.52,31.53-2.22,50.11-.41,3.02.29,6.15.6,9.43.89,26.51,2.39,53.87-5.25,75.06-20.98,24.45-18.14,35.98-42.47,47.13-66,2.99-6.31,6.08-12.84,9.37-19.11,4.22-8.04,8.43-16.34,12.5-24.36,14.55-28.66,29.6-58.29,48.37-83.41,30.61-40.97,50.02-83.86,57.69-127.49,5.48-31.14,4.82-63.7-1.89-94.17-7.1-32.2-20.4-61.11-39.56-85.91-8.62-11.16-18.5-21.41-29.5-30.61,10.12-9.32,19.6-19.75,30-31.84,18.88-21.95,41.77-42.07,63.9-61.53,8.36-7.35,17-14.94,25.3-22.53l15.21-13.9-19.51-6.65Z"/>
          <path class="cls-42" d="m727.05,51.16c-17-5.79-34.67-6.98-51.76-8.13-8.76-.59-17.04-1.14-25.21-2.28-14.56-2.02-28.63-5.87-43.53-9.95-9.03-2.47-18.37-5.03-27.81-7.13-35.64-7.95-74.81-5.95-110.29,5.61-33.53,10.93-61.06,29.38-80.48,53.79,2.95-10.95,5.95-22.02,8.95-32.94,1.98-7.2,4.7-17.07,1.74-27.31-2.03-7.02-7.1-13.28-13.56-16.74-5.71-3.06-12.07-3.74-17.93-1.91-15.35,4.81-17.97,22.11-18.83,27.8-.73,4.84-2.86,15-5.33,26.77-6.38,30.46-15.55,74.21-18.1,106.01-9.76-2.63-19.4-6.01-29.43-9.52-24.59-8.62-50.02-17.53-79.19-15.36-59.28,4.39-115.62,30.72-154.58,72.24C7.68,269.68-12.07,355.09,11.4,429.69c13.56,43.09,39.46,80,64.51,115.68l87.83,125.15c11.7,16.66,24.95,35.55,43.1,49.52,30.36,23.36,67.55,28.48,94.29,28.48.88,0,1.74,0,2.6-.02,23.29-.29,46.18-4.75,68.32-9.06l1.38-.27c18.1-3.52,31.53-2.22,50.11-.41,3.02.29,6.15.6,9.43.89,26.51,2.39,53.87-5.25,75.06-20.98,24.45-18.14,35.98-42.47,47.13-66,2.99-6.31,6.08-12.84,9.37-19.11,4.22-8.04,8.43-16.34,12.5-24.36,14.55-28.66,29.6-58.29,48.37-83.41,30.61-40.97,50.02-83.86,57.69-127.49,5.48-31.14,4.82-63.7-1.89-94.17-7.1-32.2-20.4-61.11-39.56-85.91-8.62-11.16-18.5-21.41-29.5-30.61,10.12-9.32,19.6-19.75,30-31.84,18.88-21.95,41.77-42.07,63.9-61.53,8.36-7.35,17-14.94,25.3-22.53l15.21-13.9-19.51-6.65Z"/>
          <path class="cls-28" d="m726.98,51.02c-17-5.79-34.67-6.98-51.76-8.13-8.76-.59-17.04-1.14-25.21-2.28-14.56-2.02-28.63-5.87-43.53-9.95-9.03-2.47-18.37-5.03-27.81-7.13-35.64-7.95-74.81-5.95-110.29,5.61-33.53,10.93-61.06,29.38-80.48,53.79,2.95-10.96,5.95-22.02,8.95-32.94,1.98-7.2,4.7-17.07,1.73-27.31-2.03-7.02-7.1-13.28-13.56-16.74-5.71-3.06-12.07-3.74-17.93-1.91-15.35,4.81-17.97,22.11-18.83,27.8-.73,4.84-2.86,15-5.33,26.77-6.38,30.46-15.55,74.21-18.1,106.01-9.76-2.63-19.4-6.01-29.43-9.52-24.59-8.62-50.02-17.53-79.19-15.36-59.28,4.39-115.62,30.72-154.58,72.23C7.61,269.54-12.14,354.95,11.34,429.55c13.56,43.09,39.46,80,64.51,115.68l87.83,125.15c11.7,16.66,24.95,35.55,43.1,49.52,30.36,23.36,67.55,28.48,94.29,28.48.88,0,1.74,0,2.6-.02,23.29-.29,46.18-4.75,68.32-9.06l1.38-.27c18.1-3.52,31.53-2.22,50.11-.41,3.02.29,6.15.6,9.43.89,26.51,2.39,53.87-5.25,75.06-20.98,24.45-18.14,35.98-42.47,47.13-66,2.99-6.31,6.08-12.84,9.37-19.11,4.22-8.04,8.43-16.34,12.5-24.36,14.55-28.66,29.6-58.29,48.37-83.41,30.61-40.97,50.02-83.86,57.69-127.49,5.48-31.14,4.82-63.7-1.89-94.17-7.1-32.2-20.4-61.11-39.56-85.91-8.62-11.16-18.5-21.41-29.5-30.61,10.12-9.32,19.6-19.75,30-31.84,18.88-21.95,41.77-42.07,63.9-61.53,8.36-7.35,17-14.94,25.3-22.53l15.21-13.9-19.51-6.65Z"/>
          <path class="cls-46" d="m726.91,50.88c-17-5.79-34.67-6.98-51.76-8.13-8.76-.59-17.04-1.14-25.21-2.28-14.56-2.02-28.63-5.87-43.53-9.95-9.03-2.47-18.37-5.03-27.81-7.13-35.64-7.95-74.81-5.95-110.29,5.61-33.53,10.93-61.06,29.38-80.48,53.79,2.95-10.95,5.95-22.02,8.95-32.94,1.98-7.2,4.7-17.07,1.73-27.31-2.03-7.02-7.1-13.28-13.56-16.74-5.71-3.06-12.07-3.74-17.93-1.91-15.35,4.81-17.97,22.11-18.83,27.8-.73,4.84-2.86,15-5.33,26.77-6.38,30.46-15.55,74.21-18.1,106.01-9.76-2.63-19.4-6.01-29.43-9.52-24.59-8.62-50.02-17.53-79.19-15.36-59.28,4.39-115.62,30.72-154.58,72.23C7.54,269.39-12.21,354.8,11.27,429.4c13.56,43.09,39.46,80,64.51,115.68l87.83,125.15c11.7,16.66,24.95,35.55,43.1,49.51,30.36,23.36,67.55,28.48,94.29,28.48.88,0,1.74,0,2.6-.02,23.29-.29,46.18-4.75,68.32-9.06l1.38-.27c18.1-3.52,31.53-2.22,50.11-.41,3.02.29,6.15.6,9.43.89,26.51,2.39,53.87-5.25,75.06-20.98,24.45-18.14,35.98-42.47,47.13-66,2.99-6.31,6.08-12.84,9.37-19.11,4.22-8.04,8.43-16.34,12.5-24.36,14.55-28.66,29.6-58.29,48.37-83.41,30.61-40.97,50.02-83.86,57.69-127.49,5.48-31.14,4.82-63.7-1.89-94.17-7.1-32.2-20.4-61.11-39.56-85.91-8.62-11.16-18.5-21.41-29.5-30.61,10.12-9.32,19.6-19.75,30-31.84,18.88-21.95,41.77-42.07,63.9-61.53,8.36-7.35,17-14.94,25.3-22.53l15.21-13.9-19.51-6.65Z"/>
          <path class="cls-30" d="m726.85,50.73c-17-5.79-34.67-6.98-51.76-8.13-8.76-.59-17.04-1.14-25.21-2.28-14.56-2.02-28.63-5.87-43.53-9.95-9.03-2.47-18.37-5.03-27.81-7.13-35.64-7.95-74.81-5.95-110.29,5.61-33.53,10.93-61.06,29.38-80.48,53.79,2.95-10.95,5.95-22.02,8.95-32.94,1.98-7.2,4.7-17.07,1.74-27.31-2.03-7.02-7.1-13.28-13.56-16.74-5.71-3.06-12.07-3.74-17.93-1.91-15.35,4.81-17.97,22.11-18.83,27.8-.73,4.84-2.86,15-5.33,26.77-6.38,30.46-15.55,74.21-18.1,106.01-9.76-2.63-19.4-6.01-29.43-9.52-24.59-8.62-50.02-17.53-79.19-15.36-59.28,4.39-115.62,30.72-154.58,72.23C7.47,269.25-12.27,354.66,11.2,429.26c13.56,43.09,39.46,80,64.51,115.68l87.83,125.15c11.7,16.66,24.95,35.55,43.1,49.52,30.36,23.36,67.55,28.48,94.29,28.48.88,0,1.74,0,2.6-.02,23.29-.29,46.18-4.75,68.32-9.06l1.38-.27c18.1-3.52,31.53-2.22,50.11-.41,3.02.29,6.15.6,9.43.89,26.51,2.39,53.87-5.25,75.06-20.98,24.45-18.14,35.98-42.47,47.13-66,2.99-6.31,6.08-12.84,9.37-19.11,4.22-8.04,8.43-16.34,12.5-24.36,14.55-28.66,29.6-58.29,48.37-83.41,30.61-40.97,50.02-83.86,57.69-127.49,5.48-31.14,4.82-63.7-1.89-94.17-7.1-32.2-20.4-61.11-39.56-85.91-8.62-11.16-18.5-21.41-29.5-30.61,10.12-9.32,19.6-19.75,30-31.84,18.88-21.95,41.77-42.07,63.9-61.53,8.36-7.35,17-14.94,25.3-22.53l15.21-13.9-19.51-6.65Z"/>
          <path class="cls-49" d="m726.78,50.59c-17-5.79-34.67-6.98-51.76-8.13-8.76-.59-17.04-1.14-25.21-2.28-14.56-2.02-28.63-5.87-43.53-9.95-9.03-2.47-18.37-5.03-27.81-7.13-35.64-7.95-74.81-5.95-110.29,5.61-33.53,10.93-61.06,29.38-80.48,53.79,2.95-10.95,5.95-22.02,8.95-32.94,1.98-7.2,4.7-17.07,1.74-27.31-2.03-7.02-7.1-13.28-13.56-16.74-5.71-3.06-12.07-3.74-17.93-1.91-15.35,4.81-17.97,22.11-18.83,27.8-.73,4.84-2.86,15-5.33,26.77-6.38,30.46-15.55,74.21-18.1,106.01-9.76-2.63-19.4-6.01-29.43-9.52-24.59-8.62-50.02-17.53-79.19-15.36-59.28,4.39-115.62,30.72-154.58,72.23C7.41,269.11-12.34,354.52,11.13,429.12c13.56,43.09,39.46,80,64.51,115.68l87.83,125.15c11.7,16.66,24.95,35.55,43.1,49.52,30.36,23.36,67.55,28.48,94.29,28.48.88,0,1.74,0,2.6-.02,23.29-.29,46.18-4.75,68.32-9.06l1.38-.27c18.1-3.52,31.53-2.22,50.11-.41,3.02.29,6.15.6,9.43.89,26.51,2.39,53.87-5.25,75.06-20.98,24.45-18.14,35.98-42.47,47.13-66,2.99-6.31,6.08-12.84,9.37-19.11,4.22-8.04,8.43-16.34,12.5-24.36,14.55-28.66,29.6-58.29,48.37-83.41,30.61-40.97,50.02-83.86,57.69-127.49,5.48-31.14,4.82-63.7-1.89-94.17-7.1-32.2-20.4-61.11-39.56-85.91-8.62-11.16-18.5-21.41-29.5-30.61,10.12-9.32,19.6-19.75,30-31.84,18.88-21.95,41.77-42.07,63.9-61.53,8.36-7.35,17-14.94,25.3-22.53l15.21-13.9-19.51-6.65Z"/>
          <path class="cls-45" d="m726.71,50.45c-17-5.79-34.67-6.98-51.76-8.13-8.76-.59-17.04-1.14-25.21-2.28-14.56-2.02-28.63-5.87-43.53-9.95-9.03-2.47-18.37-5.03-27.81-7.13-35.64-7.95-74.81-5.95-110.29,5.61-33.53,10.93-61.06,29.38-80.48,53.79,2.95-10.95,5.95-22.02,8.95-32.94,1.98-7.2,4.7-17.07,1.73-27.31-2.03-7.02-7.1-13.28-13.56-16.74-5.71-3.06-12.07-3.74-17.93-1.91-15.35,4.81-17.97,22.11-18.83,27.8-.73,4.84-2.86,15-5.33,26.77-6.38,30.46-15.55,74.21-18.1,106.01-9.76-2.63-19.4-6.01-29.43-9.52-24.59-8.62-50.02-17.53-79.19-15.36-59.28,4.39-115.62,30.72-154.58,72.23C7.34,268.96-12.41,354.37,11.07,428.97c13.56,43.09,39.46,80,64.51,115.68l87.83,125.15c11.7,16.66,24.95,35.55,43.1,49.52,30.36,23.36,67.55,28.48,94.29,28.48.88,0,1.74,0,2.6-.02,23.29-.29,46.18-4.75,68.32-9.06l1.38-.27c18.1-3.52,31.53-2.22,50.11-.41,3.02.29,6.15.6,9.43.89,26.51,2.39,53.87-5.25,75.06-20.98,24.45-18.14,35.98-42.47,47.13-66,2.99-6.31,6.08-12.84,9.37-19.11,4.22-8.04,8.43-16.34,12.5-24.36,14.55-28.66,29.6-58.29,48.37-83.41,30.61-40.97,50.02-83.86,57.69-127.49,5.48-31.14,4.82-63.7-1.89-94.17-7.1-32.2-20.4-61.11-39.56-85.91-8.62-11.16-18.5-21.41-29.5-30.61,10.12-9.32,19.6-19.75,30-31.84,18.88-21.95,41.77-42.07,63.9-61.53,8.36-7.35,17-14.94,25.3-22.53l15.21-13.9-19.51-6.65Z"/>
          <path d="m726.64,50.3c-17-5.79-34.67-6.98-51.76-8.13-8.76-.59-17.04-1.14-25.21-2.28-14.56-2.02-28.63-5.87-43.53-9.95-9.03-2.47-18.37-5.03-27.81-7.13-35.64-7.95-74.81-5.95-110.29,5.61-33.53,10.93-61.06,29.38-80.48,53.79,2.95-10.95,5.95-22.02,8.95-32.94,1.98-7.2,4.7-17.07,1.73-27.31-2.03-7.02-7.1-13.28-13.56-16.74-5.71-3.06-12.07-3.74-17.93-1.91-15.35,4.81-17.97,22.11-18.83,27.8-.73,4.84-2.86,15-5.33,26.77-6.38,30.46-15.55,74.21-18.1,106.01-9.76-2.63-19.4-6.01-29.43-9.52-24.59-8.62-50.02-17.53-79.19-15.36-59.28,4.39-115.62,30.72-154.58,72.23C7.27,268.82-12.48,354.23,11,428.83c13.56,43.09,39.46,80,64.51,115.68l87.83,125.15c11.7,16.66,24.95,35.55,43.1,49.51,30.36,23.36,67.55,28.48,94.29,28.48.88,0,1.74,0,2.6-.02,23.29-.29,46.18-4.75,68.32-9.06l1.38-.27c18.1-3.52,31.53-2.22,50.11-.41,3.02.29,6.15.6,9.43.89,26.51,2.39,53.87-5.25,75.06-20.98,24.45-18.14,35.98-42.47,47.13-66,2.99-6.31,6.08-12.84,9.37-19.11,4.22-8.04,8.43-16.34,12.5-24.36,14.55-28.66,29.6-58.29,48.37-83.41,30.61-40.97,50.02-83.86,57.69-127.49,5.48-31.14,4.82-63.7-1.89-94.17-7.1-32.2-20.4-61.11-39.56-85.91-8.62-11.16-18.5-21.41-29.5-30.61,10.12-9.32,19.6-19.75,30-31.84,18.88-21.95,41.77-42.07,63.9-61.53,8.36-7.35,17-14.94,25.3-22.53l15.21-13.9-19.51-6.65Z"/>
        </g>
      </g>
      <g id="Graphic_elements" data-name="Graphic elements">
        <path class="cls-7" d="m725.39,48c-17-5.79-34.67-6.98-51.76-8.13-8.76-.59-17.04-1.14-25.21-2.28-14.56-2.02-28.63-5.87-43.53-9.95-9.03-2.47-18.37-5.03-27.81-7.13-35.64-7.95-74.81-5.95-110.29,5.61-33.53,10.93-61.06,29.38-80.48,53.79,2.95-10.95,5.95-22.02,8.95-32.94,1.98-7.2,4.7-17.07,1.74-27.31-2.03-7.02-7.1-13.28-13.56-16.74-5.71-3.06-12.07-3.74-17.93-1.91-15.35,4.81-17.97,22.11-18.83,27.8-.73,4.84-2.86,15-5.33,26.77-6.38,30.46-15.55,74.21-18.1,106.01-9.76-2.63-19.4-6.01-29.43-9.52-24.59-8.62-50.02-17.53-79.19-15.36-59.28,4.39-115.62,30.72-154.58,72.23C6.02,266.52-13.73,351.93,9.75,426.53c13.56,43.09,39.46,80,64.51,115.68l87.83,125.15c11.7,16.66,24.95,35.55,43.1,49.51,30.36,23.36,67.55,28.48,94.29,28.48.88,0,1.74,0,2.6-.02,23.29-.29,46.18-4.75,68.32-9.06l1.38-.27c18.1-3.52,31.53-2.22,50.11-.41,3.02.29,6.15.6,9.43.89,26.51,2.39,53.87-5.25,75.06-20.98,24.45-18.14,35.98-42.47,47.13-66,2.99-6.31,6.08-12.84,9.37-19.11,4.22-8.04,8.43-16.34,12.5-24.36,14.55-28.66,29.6-58.29,48.37-83.41,30.61-40.97,50.02-83.86,57.69-127.49,5.48-31.14,4.82-63.7-1.89-94.17-7.1-32.2-20.4-61.11-39.56-85.91-8.62-11.16-18.5-21.41-29.5-30.61,10.12-9.32,19.6-19.75,30-31.84,18.88-21.95,41.77-42.07,63.9-61.53,8.36-7.35,17-14.94,25.3-22.53l15.21-13.9-19.51-6.65Z"/>
        <g>
          <g>
            <path class="cls-44" d="m370.03,176.57c-11.5,1.87-23.04,2.33-34.66.3-41.18-7.19-76.81-31.22-120.15-28.01-55.25,4.1-109.12,28.49-146.58,68.42C17.7,271.56-1.05,352.59,21.06,422.87c12.88,40.93,38.05,76.99,62.86,112.34,29.28,41.72,58.56,83.43,87.83,125.15,11.88,16.93,24.03,34.14,40.55,46.86,24.84,19.12,57.62,26.32,89.3,25.93,22.66-.28,45.43-4.8,67.51-9.1,22.96-4.47,39.08-1.85,62.97.31,23.57,2.13,47.87-4.66,66.69-18.62,28.25-20.96,37.59-51.65,52.97-80.98,19.27-36.75,37.14-76.26,61.9-109.4,27.25-36.48,47.59-77.61,55.45-122.3,10.38-59.02-2.13-122.64-39.09-170.52-36.96-47.88-99.23-77.82-160.47-71.83-33.48,3.28-66.33,20.47-99.51,25.88Z"/>
            <path class="cls-23" d="m358.43,30.64c1.09-7.2,3.3-15.75,10.42-17.98,6.86-2.15,14.17,3.66,16.12,10.4,1.95,6.75.09,13.91-1.78,20.69-14.21,51.64-27.46,103.66-42.79,154.98-19.28-9.66,14.25-143.1,18.03-168.08Z"/>
            <path class="cls-8" d="m204.86,192.64c21.59.76,46.89,9.88,51.08,30.49,1.4,6.9.08,14.13-2.6,20.66-8.44,20.53-28.76,33.54-46.03,47.91-37.23,30.97-64.03,73.63-75.36,119.99-2.92,11.95-5.71,25.45-16.24,32.24-16.48,10.62-38.32-3.07-50.16-18.47-74.89-97.52,21.81-236.93,139.31-232.82Z"/>
            <path class="cls-20" d="m418.78,664.79c42.39-15.33,69.26-55.8,107.31-79.57,2.36-1.48,4.89-2.93,7.69-3.14,6.11-.46,11.17,5.4,11.87,11.33.7,5.92-1.76,11.73-4.28,17.16-8.95,19.28-19.37,37.93-31.12,55.73-6.78,10.26-14.34,20.55-25.12,26.77-22.41,12.92-50.97,4.71-76.8,8.08-10.62,1.38-75.64,19.1-63.66-12.67,5.88-15.58,59.81-18.51,74.13-23.69Z"/>
            <path class="cls-32" d="m310.24,197.9c1.25-2.8,4.74-4.09,7.87-3.93,3.14.16,6.07,1.45,9.04,2.44,10.48,3.5,22.2,3.4,32.61-.3,3.91-1.39,7.7-3.28,11.81-3.89,4.12-.61,8.84.36,11.25,3.67,2.28,3.12,1.86,7.56-.14,10.85s-5.31,5.63-8.72,7.54c-12.77,7.17-30.25,10.89-44.44,5.51-6.94-2.63-23.27-12.95-19.29-21.9Z"/>
            <path class="cls-18" d="m341.59,186.28c-2.3,4.23-4.67,8.43-7.14,12.57,19.36,13.49,70.84,16.69,95.6,20.29,41.51,6.04,85.15,4.77,124.76-12.48,32.84-14.32,53.7-35.95,76.1-62,26.67-31.01,59.95-57.45,90.23-85.11-23.63-8.05-49.78-6.41-74.72-9.87-24.67-3.43-48.1-11.86-72.32-17.26-65.79-14.67-148.87,6.55-186.88,66.8-17.55,27.81-29.96,58.28-45.63,87.07Z"/>
            <path class="cls-3" d="m721.14,59.55c-23.63-8.05-49.78-6.41-74.72-9.87-24.67-3.43-48.1-11.86-72.32-17.26-65.79-14.67-148.87,6.55-186.88,66.8-17.55,27.81-29.96,58.28-45.63,87.07-2.3,4.22-4.67,8.41-7.13,12.55,1.6-2.69,10.75-3.04,13.57-4.01,9.13-3.16,17.92-7.44,26.69-11.45,18.95-8.67,37.61-17.92,56.56-26.59,53.35-24.38,108.93-44.13,165.86-58.97,27.45-7.15,53.9-13.02,80.41-22.56,14.54-5.23,29.07-10.47,43.6-15.71Z"/>
          </g>
          <path class="cls-5" d="m377.61,20.51c-2.75-3.08-7.66-4.71-10.45-1.75-3.01,3.2-2.58,8.67.27,11.84.61.68,1.34,1.29,2.21,1.56,1.33.4,2.77-.05,4.09-.56,7.31-2.8,6.84-7.79,3.89-11.1Z"/>
        </g>
      </g>
    </g>
  </g>
</svg>