<?xml version="1.0" encoding="UTF-8"?>
<svg id="_Слой_2" data-name="Слой 2" xmlns="http://www.w3.org/2000/svg" viewBox="0 0 1411.69 1230.01">
  <defs>
    <style>
      .cls-1 {
        fill: #fff;
      }

      .cls-2 {
        fill: #91869e;
      }

      .cls-3 {
        fill: #ffe656;
      }

      .cls-4 {
        opacity: .4;
      }

      .cls-5 {
        fill: #371c47;
      }

      .cls-6 {
        fill: #9dbe00;
      }

      .cls-7 {
        opacity: .3;
      }

      .cls-8 {
        fill: #f80d1b;
      }
    </style>
  </defs>
  <g id="Layer_1" data-name="Layer 1">
    <g>
      <g>
        <path class="cls-6" d="m687.38,1033.47s-368.91,31.69-583.92-248.96c-215.01-280.64,36.21-488.86,117.69-547.71,0,0-6.79-167.48,113.16-196.9,119.95-29.42,169.74,56.58,169.74,56.58,0,0,131.27-70.16,334.96,0,0,0,31.69-88.27,165.22-76.95,133.53,11.32,151.64,174.27,151.64,174.27,0,0,262.54,196.9,235.38,473.02-27.16,276.12-389.28,366.65-703.87,366.65Z"/>
        <path class="cls-3" d="m64.68,402.22s15.02,213.69,194.95,204.63c179.93-9.05,250.09-95.06,416.44-95.06s241.04,118.82,416.44,136.93c175.4,18.11,266.2-130.38,271.16-178.35,0,0,146.72,368.87-242.15,493.71-388.87,124.84-794.95,90.5-975.53-129.97C-34.59,613.64,23.63,497.47,64.68,402.22Z"/>
        <path class="cls-5" d="m906.21,811.77s-126.03,101.75-230.14,94.96c-104.11-6.79-240.53-103.43-240.53-103.43,0,0,350.01,47.04,470.67,8.47Z"/>
        <path class="cls-8" d="m530.54,855.18s162.31-25.49,311.25,0c0,0-48.58,53.72-148.23,51.68-99.65-2.05-163.02-51.68-163.02-51.68Z"/>
        <g class="cls-4">
          <path class="cls-1" d="m221.26,222.79s47.13-133.5,134.26-148.78,126.18,72.96,142.58,74.39,78.65-43.84,187.85-34.22c109.2,9.62,149.94,33.38,176.53,25.46,26.59-7.92,45.26-88.27,150.51-79.78,105.24,8.49,144.28,147.9,144.28,147.9,0,0,6.33-101.43-78.6-160.59-84.92-59.16-172.97-20.69-194.98-2.45-22.01,18.25-44.68,51.76-44.68,51.76,0,0-79.51-26.44-168.34-28.7-88.83-2.26-166.62,28.7-166.62,28.7,0,0-38.17-66.63-132.39-62.38-94.23,4.25-152.83,60.78-150.41,188.68Z"/>
        </g>
        <path class="cls-5" d="m686.19,922.49c-3.73,0-7.43-.12-11.12-.36-107.23-6.99-242.73-102.19-248.44-106.24-6.04-4.27-8.19-12.23-5.13-18.97,3.06-6.73,10.46-10.35,17.66-8.62,2.25.54,227.56,53.6,464.16,8.32,6.95-1.35,13.92,2.24,16.89,8.66,2.98,6.42,1.21,14.05-4.3,18.49-5.16,4.16-123.53,98.71-229.71,98.71Zm-172.92-89.5c47.13,25.95,110.5,54.87,163.81,58.35,55.69,3.64,119.73-27,164.16-53.8-131.9,16.19-252.33,6.16-327.97-4.55Z"/>
        <path class="cls-5" d="m578.3,658.4c-3.9-10.78-7.45-23.54-11.8-34.3-1.68-4.13-2.78-8.73-1.14-16.43.2-.93.98-1.6,1.89-1.68,7.83-.69,12.79,1.95,16.6,5.44,11.24,8.29,39.73,48.34,15.06,54.39-4.87,1.28-14.7-5.1-20.6-7.43h0Z"/>
        <path class="cls-5" d="m739.11,652.63c2.68-16.4,12.61-30.44,24.77-41.19,3.8-3.49,8.76-6.14,16.6-5.44.95.08,1.7.78,1.89,1.67,1.64,7.71.54,12.31-1.14,16.43-3.63,9.16-7.11,20.31-10.16,29.64-.37.94-1.22,4.09-1.64,4.66,0,0-13.98,6.48-13.98,6.48-8.08,4.05-17.93-3.47-16.33-12.26h0Z"/>
        <g>
          <ellipse class="cls-5" cx="371.67" cy="228.89" rx="92.8" ry="132.4"/>
          <circle class="cls-1" cx="359.78" cy="171.74" r="36.02"/>
          <path class="cls-2" d="m405.75,312.6c1.82,6.25-5.29,13.82-15.89,16.91-10.6,3.09-20.67.53-22.49-5.72-1.82-6.25,5.29-13.82,15.89-16.91,10.6-3.09,20.67-.53,22.49,5.72Z"/>
        </g>
        <g>
          <ellipse class="cls-5" cx="991.79" cy="228.89" rx="92.8" ry="132.4"/>
          <circle class="cls-1" cx="1003.68" cy="171.74" r="36.02"/>
          <ellipse class="cls-2" cx="976.9" cy="318.2" rx="11.79" ry="19.99" transform="translate(397.89 1166.91) rotate(-73.74)"/>
        </g>
        <path class="cls-1" d="m354.25,782.3s46.84,82.56,55.89,82.56,35.37-54.78,35.37-54.78"/>
        <path class="cls-1" d="m913.15,810.65s50.35,51.95,57.14,54.21c6.79,2.26,21.5-61.56,21.5-61.56"/>
        <path class="cls-5" d="m410.14,880.29c-8.87,0-18.04,0-69.31-90.38-4.2-7.41-1.61-16.83,5.81-21.03,7.41-4.21,16.83-1.61,21.03,5.81,14.23,25.08,31.85,53.77,42.32,68.2,6.02-9.32,14.44-24.56,21.62-39.49,3.7-7.68,12.91-10.91,20.59-7.22,7.68,3.69,10.91,12.91,7.22,20.59-30.53,63.52-41.81,63.52-49.28,63.52Z"/>
        <path class="cls-5" d="m970.62,880.34c-1.76,0-3.53-.28-5.21-.84-3.62-1.21-10.37-3.46-63.34-58.11-5.93-6.12-5.78-15.89.34-21.82,6.12-5.93,15.88-5.78,21.82.34,14.07,14.52,30.39,30.77,41.38,41.1,3.61-11.17,7.92-27.2,11.14-41.17,1.91-8.31,10.19-13.48,18.5-11.57,8.3,1.91,13.48,10.2,11.57,18.5-14.76,64.03-22.65,68.46-27.87,71.39-2.58,1.45-5.46,2.19-8.33,2.19Z"/>
        <g class="cls-7">
          <path class="cls-5" d="m35.41,465.16s-6.02,496.99,647.42,496.99,700.97-301.77,710.4-368.15c0,0,69.62,439.48-705.84,439.48C35.41,1033.47-15.78,561.75,35.41,465.16Z"/>
        </g>
        <g class="cls-7">
          <path class="cls-5" d="m191.16,703.87s176.21,69.67,491.66,69.67,478.69-54.45,478.69-54.45c0,0-142.27,108.43-471.87,108.43s-498.48-123.64-498.48-123.64Z"/>
        </g>
        <path class="cls-5" d="m652.68,1053.11c-38.39,0-103.89-3.29-180.74-20.82-111.64-25.46-268.74-87.16-383.17-236.51C18.48,704.03-10.29,610.72,3.26,518.43c20.25-137.89,130.21-239.58,199.32-290.96.56-39.07,10.87-176.98,127.33-205.54,100.84-24.72,158.29,25.92,180.03,51.59,39.47-16.1,155.59-51.68,319.85.42,17.22-28.28,65.04-82.29,176.02-72.84,112.78,9.56,157.89,119.48,167.44,182.8,18.21,14.62,72.7,60.98,125.37,131.84,84.22,113.32,122.63,235.35,111.07,352.91-12.94,131.54-101.21,236-255.28,302.07-122.04,52.34-287.61,81.2-466.27,81.28-3.44.27-15.94,1.12-35.45,1.12ZM382.36,52.31c-13.17,0-27.69,1.66-43.64,5.58-103.68,25.43-99.13,176.67-99.07,178.19.23,6.19-2.64,12.11-7.66,15.73-63.57,45.91-173.06,142.3-192.1,271.99-12.04,82.01,14.29,165.94,78.27,249.45,206.46,269.47,564.05,242.09,567.64,241.77.52-.05,1.05-.07,1.58-.07,314.72,0,660.06-91.93,685.45-349.95,25.79-262.25-225.53-454.49-228.08-456.4-4.08-3.07-6.72-7.69-7.28-12.76-.69-6.01-18.24-147.99-134.8-157.87-118-10.02-145.96,64.01-146.23,64.76-3.42,9.53-13.86,14.55-23.46,11.25-192.75-66.4-319-1.81-320.25-1.15-8.79,4.64-19.72,1.52-24.7-7.08-1.47-2.48-32.79-53.45-105.68-53.45Z"/>
        <path class="cls-5" d="m181.01,687.36c200.91,149.86,714.04,157.14,936.55,49.04,13.49-6.99,28.94-15.34,41.32-24.16,4.31-3.21,8.86-6.57,12.41-9.92,2.5-2.31,6.4-2.15,8.7.35,2.16,2.34,2.14,5.93.08,8.27-31.38,32.97-72.42,53.95-113.65,71.59-81.91,34.04-171.38,50.27-259.44,57.92-175.88,13.49-359.95,3.37-522.87-70.29-20.16-9.66-39.97-20.05-58.81-32.18-18.91-12.14-36.82-25.16-53.03-41.89-2.37-2.45-2.3-6.35.14-8.71,2.43-2.35,6.19-2.26,8.59-.01h0Z"/>
        <g class="cls-7">
          <path class="cls-5" d="m772.52,689.05s28.01-12.16,33.38-50.36c0,0,25.46,63.37-33.38,50.36Z"/>
        </g>
        <g class="cls-7">
          <path class="cls-5" d="m547.82,645.29s5.75,38.95,49.12,46.43c0,0-27.71,6.38-42.25-6.45-20.75-18.31-6.87-39.98-6.87-39.98Z"/>
        </g>
        <path class="cls-5" d="m357.42,586.9c92.52-47.99,212.3-91.54,317.37-93.39,29.65.29,57.95,5.77,85.03,13.39,53.8,15.35,104.15,38.41,152.86,65.22,24.09,13.38,47.55,27.55,70.22,43.42,2.8,1.96,3.48,5.82,1.52,8.62-1.78,2.55-5.15,3.34-7.84,1.98-48.93-23.1-98.67-44.87-149.13-62.86-48.92-17.1-101.17-33.05-152.51-33.15-79.75,2.89-157.4,26.09-234.39,46.25,0,0-78.41,21.93-78.41,21.93-6.77,2.06-11.33-7.85-4.71-11.41h0Z"/>
      </g>
      <g>
        <path class="cls-8" d="m737.25,834.11s-12.29,75.23-54.43,128.03c-42.14,52.81-108.09,158.43,3.34,251.97,0,0-68.11,7.99-98.67-44.1l-82.61,22.6s-4.53-74.99,52.05-159.15c56.58-84.15,121.62-117.28,125.88-205.96h54.43v6.59Z"/>
        <g class="cls-7">
          <path class="cls-5" d="m517.34,1170.02s62.81-41.34,65.63-48.69c2.83-7.36,13.38-93.36,48.56-134.1,35.18-40.74,74.79-100.92,70.26-111.85-4.53-10.93-18.97-20.2-18.97-20.2l3.34-24.8,51.08,3.73s-10.02,45.05-29.53,92.58c-19.51,47.53-79.76,93.92-86.69,133.53-6.94,39.61,27.01,117.35,27.01,117.35l18.67,31.46s-33.45-.65-42.27-5.45c-8.81-4.8-45.69-33.55-45.69-33.55,0,0-63.11,16.37-64.81,15.81-1.7-.57,3.39-15.81,3.39-15.81Z"/>
        </g>
        <path class="cls-5" d="m674.88,1230.01c-23.52,0-73.38-4.74-102.46-41.91l-63.02,19.28c-4.52,1.39-9.43.62-13.31-2.08-3.88-2.7-6.32-7.03-6.6-11.75-.2-3.27-4.16-81.21,54.65-168.68,19.08-28.38,39.26-51.32,57.07-71.55,35.53-40.38,63.6-72.28,66.2-126.54.4-8.22,7.18-14.69,15.41-14.69h54.43c8.52,0,15.43,6.91,15.43,15.43v6.59c0,.83-.07,1.66-.21,2.49-.53,3.23-13.45,79.84-57.59,135.17-73.8,92.5-73.41,167.91,1.2,230.54,4.75,3.98,6.65,10.42,4.83,16.34-1.82,5.92-7,10.18-13.15,10.83-.79.08-5.56.54-12.89.54Zm-96.12-75.42c5.36,0,10.48,2.81,13.31,7.63,12.36,21.07,34.87,30.27,54.59,34.16-44.18-53.38-63.96-133.48,24.11-243.86,29.8-37.35,43.86-87.44,48.94-109.58h-22.72c-7,56.19-37.6,90.97-72.6,130.75-18.03,20.49-36.67,41.67-54.63,68.39-35.76,53.18-45.78,102.8-48.51,129.4l53.01-16.22c1.49-.46,3.01-.68,4.51-.68Z"/>
      </g>
    </g>
  </g>
</svg>